<?xml version="1.0" encoding="UTF-8"?>
<!DOCTYPE svg PUBLIC "-//W3C//DTD SVG 1.1//EN" "http://www.w3.org/Graphics/SVG/1.1/DTD/svg11.dtd">
<!-- Creator: CorelDRAW 2021 (64-Bit) -->
<svg xmlns="http://www.w3.org/2000/svg" xml:space="preserve" width="157.295mm" height="157.295mm" version="1.1" style="shape-rendering:geometricPrecision; text-rendering:geometricPrecision; image-rendering:optimizeQuality; fill-rule:evenodd; clip-rule:evenodd"
viewBox="0 0 4428.87 4428.87"
 xmlns:xlink="http://www.w3.org/1999/xlink"
 xmlns:xodm="http://www.corel.com/coreldraw/odm/2003">
 <defs>
  <style type="text/css">
   <![CDATA[
    .str1 {stroke:#BB8750;stroke-width:9.54;stroke-linecap:round;stroke-linejoin:round;stroke-miterlimit:22.9256}
    .str2 {stroke:#DCC77A;stroke-width:9.54;stroke-linecap:round;stroke-linejoin:round;stroke-miterlimit:22.9256}
    .str5 {stroke:#CEAA67;stroke-width:11.92;stroke-linecap:round;stroke-linejoin:round;stroke-miterlimit:22.9256}
    .str0 {stroke:black;stroke-width:4.77;stroke-linecap:round;stroke-linejoin:round;stroke-miterlimit:22.9256}
    .str4 {stroke:#D0AC74;stroke-width:4.77;stroke-linecap:round;stroke-linejoin:round;stroke-miterlimit:22.9256}
    .str3 {stroke:#D7B77F;stroke-width:4.77;stroke-linecap:round;stroke-linejoin:round;stroke-miterlimit:22.9256}
    .fil1 {fill:none}
    .fil0 {fill:#003333}
    .fil22 {fill:#C69D5E;fill-rule:nonzero}
    .fil23 {fill:url(#id6)}
    .fil5 {fill:url(#id7)}
    .fil24 {fill:url(#id8)}
    .fil4 {fill:url(#id9)}
    .fil2 {fill:url(#id10)}
    .fil3 {fill:url(#id11)}
    .fil8 {fill:url(#id12)}
    .fil19 {fill:url(#id13)}
    .fil14 {fill:url(#id14)}
    .fil7 {fill:url(#id15)}
    .fil25 {fill:url(#id16)}
    .fil20 {fill:url(#id17)}
    .fil28 {fill:url(#id18)}
    .fil10 {fill:url(#id19)}
    .fil6 {fill:url(#id20)}
    .fil16 {fill:url(#id21)}
    .fil27 {fill:url(#id22)}
    .fil9 {fill:url(#id23)}
    .fil11 {fill:url(#id24)}
    .fil17 {fill:url(#id25)}
    .fil15 {fill:url(#id26)}
    .fil26 {fill:url(#id27)}
    .fil18 {fill:url(#id28)}
    .fil12 {fill:url(#id29)}
    .fil13 {fill:url(#id30)}
    .fil21 {fill:url(#id31);fill-rule:nonzero}
   ]]>
  </style>
   <clipPath id="id0">
    <path d="M296.12 2724.41c-47.23,-169.46 -72.48,-348.08 -72.48,-532.6 0,-2603.75 3958.94,-2603.75 3958.94,0 0,182.54 -24.71,359.3 -70.96,527.14 -4344.33,2.15 -186.07,13.14 -3815.5,5.47z"/>
   </clipPath>
    <mask id="id1">
  <linearGradient id="id2" gradientUnits="userSpaceOnUse" x1="1323.68" y1="1440.56" x2="1367.06" y2="2684.91">
   <stop offset="0" style="stop-opacity:1; stop-color:white"/>
   <stop offset="1" style="stop-opacity:0; stop-color:white"/>
  </linearGradient>
     <rect style="fill:url(#id2)" x="223.64" y="238.99" width="3958.94" height="2488.11"/>
    </mask>
   <clipPath id="id3">
    <path d="M296.12 2724.41c-47.23,-169.46 -72.48,-348.08 -72.48,-532.6 0,-2603.75 3958.94,-2603.75 3958.94,0 0,182.54 -24.71,359.3 -70.96,527.14 -4344.33,2.15 -186.07,13.14 -3815.5,5.47z"/>
   </clipPath>
     <clipPath id="id4">
      <path d="M1939.61 2463.77c-2.78,62.75 -6.41,126.76 -14.54,189.06 -15.82,121.26 -43.91,345.07 -73.32,358.24 -29.41,13.17 -209.93,26.49 -246.89,-5.23 -36.96,-31.72 -58.31,-298.64 -66.54,-409.64 -3.07,-41.42 -4.34,-85.21 -4.8,-124.19l406.08 -8.24z"/>
     </clipPath>
     <clipPath id="id5">
      <path d="M1939.61 2463.77c3.1,-69.88 3.82,-125.05 3.82,-125.05 0,0 11.62,-11.31 10.69,-18.17 -0.93,-6.86 -0.6,-41.24 -0.6,-41.24 0,0 14.02,-9.34 10.16,-17.97 -3.86,-8.63 -13.12,-3.6 -26.14,-18.68 -13.01,-15.08 -26.07,-76.52 -47.85,-101.01 -21.78,-24.49 -41.77,-27.32 -41.77,-27.32 0,0 1.9,-48.98 -4.29,-88.66 -2.88,-18.47 -16.6,-31.71 -32.53,-33.14 -48.41,-4.36 -132.88,2.29 -142.72,2.46 -9.84,0.17 -32.74,19.37 -33.35,42.59 -0.61,23.21 -2.55,81.55 -2.55,81.55 0,0 -57.17,17.61 -69.92,69.6 -12.75,51.99 -16.34,64.81 -29.03,68.07 -12.69,3.26 -21.36,7.67 -19.14,16.14 2.22,8.48 5.68,7.2 9.11,9.57 3.43,2.37 -1.62,48.07 0.05,53.52 1.67,5.45 7.98,7.77 9.64,14.43 1.04,4.17 -0.43,56.06 0.35,121.53l406.08 -8.24z"/>
     </clipPath>
  <linearGradient id="id6" gradientUnits="objectBoundingBox" x1="0%" y1="50%" x2="100%" y2="50%">
   <stop offset="0" style="stop-opacity:1; stop-color:#E4CE94"/>
   <stop offset="1" style="stop-opacity:1; stop-color:#B8814C"/>
  </linearGradient>
  <linearGradient id="id7" gradientUnits="objectBoundingBox" x1="0%" y1="50%" x2="100%" y2="50%">
   <stop offset="0" style="stop-opacity:1; stop-color:#FFFF99"/>
   <stop offset="1" style="stop-opacity:1; stop-color:#FF9933"/>
  </linearGradient>
  <linearGradient id="id8" gradientUnits="userSpaceOnUse" xlink:href="#id6" x1="2150.09" y1="1114.51" x2="2178.18" y2="1114.51">
  </linearGradient>
  <linearGradient id="id9" gradientUnits="userSpaceOnUse" xlink:href="#id7" x1="2932.13" y1="1869.12" x2="3339.3" y2="1869.12">
  </linearGradient>
  <linearGradient id="id10" gradientUnits="userSpaceOnUse" x1="223.64" y1="1483.04" x2="4182.58" y2="1483.04">
   <stop offset="0" style="stop-opacity:1; stop-color:#BB8750"/>
   <stop offset="0.490196" style="stop-opacity:1; stop-color:#F2E5C2"/>
   <stop offset="1" style="stop-opacity:1; stop-color:#CEAA67"/>
  </linearGradient>
  <linearGradient id="id11" gradientUnits="userSpaceOnUse" xlink:href="#id7" x1="2433.91" y1="1954.48" x2="4428.62" y2="1954.48">
  </linearGradient>
  <linearGradient id="id12" gradientUnits="userSpaceOnUse" x1="2560.84" y1="2661.67" x2="2616.64" y2="2660.39">
   <stop offset="0" style="stop-opacity:1; stop-color:#FF9966"/>
   <stop offset="1" style="stop-opacity:1; stop-color:#E4E68A"/>
  </linearGradient>
  <linearGradient id="id13" gradientUnits="userSpaceOnUse" xlink:href="#id12" x1="2558.6" y1="2886.71" x2="2596.12" y2="2885.84">
  </linearGradient>
  <linearGradient id="id14" gradientUnits="userSpaceOnUse" xlink:href="#id12" x1="2751.03" y1="2849.8" x2="2788.76" y2="2848.93">
  </linearGradient>
  <linearGradient id="id15" gradientUnits="userSpaceOnUse" xlink:href="#id12" x1="2697.67" y1="2661.69" x2="2752.86" y2="2660.42">
  </linearGradient>
  <linearGradient id="id16" gradientUnits="userSpaceOnUse" x1="1634.97" y1="2034.56" x2="1854.2" y2="2084.4">
   <stop offset="0" style="stop-opacity:1; stop-color:#FCD483"/>
   <stop offset="1" style="stop-opacity:1; stop-color:#C99950"/>
  </linearGradient>
  <linearGradient id="id17" gradientUnits="userSpaceOnUse" xlink:href="#id12" x1="2663.07" y1="2916.29" x2="2700.42" y2="2915.43">
  </linearGradient>
  <linearGradient id="id18" gradientUnits="userSpaceOnUse" x1="1512.84" y1="2706.17" x2="1900.1" y2="2794.21">
   <stop offset="0" style="stop-opacity:1; stop-color:#DECA7C"/>
   <stop offset="1" style="stop-opacity:1; stop-color:#B57B48"/>
  </linearGradient>
  <linearGradient id="id19" gradientUnits="userSpaceOnUse" xlink:href="#id12" x1="2734.16" y1="2934.23" x2="2772.5" y2="2933.35">
  </linearGradient>
  <linearGradient id="id20" gradientUnits="userSpaceOnUse" xlink:href="#id12" x1="2446.74" y1="2584.64" x2="2864.07" y2="2575.03">
  </linearGradient>
  <linearGradient id="id21" gradientUnits="userSpaceOnUse" xlink:href="#id12" x1="2606.93" y1="2970.29" x2="2644.47" y2="2969.42">
  </linearGradient>
  <linearGradient id="id22" gradientUnits="userSpaceOnUse" x1="1521.56" y1="2310" x2="1962.92" y2="2314.32">
   <stop offset="0" style="stop-opacity:1; stop-color:#E6D198"/>
   <stop offset="1" style="stop-opacity:1; stop-color:#C99950"/>
  </linearGradient>
  <linearGradient id="id23" gradientUnits="userSpaceOnUse" xlink:href="#id12" x1="2620.37" y1="2752.73" x2="2697.36" y2="2750.96">
  </linearGradient>
  <linearGradient id="id24" gradientUnits="userSpaceOnUse" xlink:href="#id12" x1="2674.92" y1="2970.19" x2="2712.74" y2="2969.32">
  </linearGradient>
  <linearGradient id="id25" gradientUnits="userSpaceOnUse" xlink:href="#id12" x1="2604.28" y1="2852.08" x2="2641.5" y2="2851.22">
  </linearGradient>
  <linearGradient id="id26" gradientUnits="userSpaceOnUse" xlink:href="#id12" x1="2555.76" y1="2942.71" x2="2593.12" y2="2941.85">
  </linearGradient>
  <linearGradient id="id27" gradientUnits="userSpaceOnUse" x1="1443.16" y1="2300.37" x2="2022.21" y2="2306.03">
   <stop offset="0" style="stop-opacity:1; stop-color:#C79F77"/>
   <stop offset="1" style="stop-opacity:1; stop-color:#E6B868"/>
  </linearGradient>
  <linearGradient id="id28" gradientUnits="userSpaceOnUse" xlink:href="#id12" x1="2527.61" y1="2830.45" x2="2565.39" y2="2829.58">
  </linearGradient>
  <linearGradient id="id29" gradientUnits="userSpaceOnUse" xlink:href="#id12" x1="2611.39" y1="2912.35" x2="2648.94" y2="2911.48">
  </linearGradient>
  <linearGradient id="id30" gradientUnits="userSpaceOnUse" xlink:href="#id12" x1="2706.12" y1="2883.32" x2="2743.39" y2="2882.46">
  </linearGradient>
  <linearGradient id="id31" gradientUnits="objectBoundingBox" x1="0.00235368%" y1="50.0455%" x2="99.9834%" y2="50.0455%">
   <stop offset="0" style="stop-opacity:1; stop-color:#B8814C"/>
   <stop offset="0.639216" style="stop-opacity:1; stop-color:#C9A261"/>
   <stop offset="1" style="stop-opacity:1; stop-color:#DAC377"/>
  </linearGradient>
 </defs>
 <g id="Layer_x0020_1">
  <metadata id="CorelCorpID_0Corel-Layer"/>
  <circle class="fil0 str0" cx="2214.44" cy="2214.44" r="2212.05"/>
  <line class="fil1 str1" x1="1471.15" y1="3034.7" x2="2966.2" y2= "3034.7" />
  <line class="fil1 str2" x1="1133.26" y1="3098.64" x2="2163.2" y2= "3098.64" />
  <line class="fil1 str2" x1="2272.2" y1="3098.64" x2="3302.14" y2= "3098.64" />
  <g style="clip-path:url(#id0)">
   <polygon class="fil2" style="mask:url(#id1)" points="223.64,238.99 4182.58,238.99 4182.58,2727.1 223.64,2727.1 "/>
  </g>
  <g style="clip-path:url(#id3)">
   <g id="_2067433265968">
    <g>
     <path id="_1" class="fil3" d="M3037.05 2111.59c17.98,-11.77 33.76,-21.74 50.7,-33.95 16.53,-11.91 34.85,-19.92 50.79,-33.36l107.62 67.42c-58.05,14.11 -151.44,36.99 -209.11,-0.12zm-603.15 49.77c76.48,-13.61 127.07,-58.16 171.07,-97.81 45.22,-40.74 99.63,-82.32 141.18,-126.3 34.51,18.5 165.08,145.86 253.2,174.68 -9.66,12.78 3.11,-0.42 -8.93,9.33 -2.54,2.06 -7.32,4.9 -9.6,6.03 -22.53,11.17 -54.32,8.13 -78.46,8.02l9.47 7.3c95.94,0.04 76.96,-20.28 108.33,-18.39 24.08,1.45 103.69,39.9 221.23,-7.08 28.82,-11.52 52.68,17.21 87.51,20.97l-58.82 -30.12c11.61,-17.09 28.52,-20.62 55.83,-43.05 52.65,-43.23 97.57,-86.52 142.1,-137.37l168.03 -200.07c28.89,20.97 46.78,43.28 73.41,67.56 13.4,12.21 22.33,17.73 39.06,32.08 100,85.82 92.05,83.78 204.29,-19.01 13.39,5.7 75.62,79.4 105.17,107.14 20.01,18.78 38.76,32.09 58.88,50.16 19.22,17.26 33.36,33.31 52.83,51.07 64.51,58.84 153.1,121.21 225.54,172.45 3.13,2.21 7.77,6.01 10.97,8.89 -175.03,-12.4 -326.22,-62.75 -472.41,-144.26 -17.12,-9.55 -36.6,-26.03 -56.28,-31.27 -24.41,1.44 -94.26,88.54 -121.71,85.72 -18.14,-1.86 -103.87,-70.38 -120.15,-82.93 -26.81,-20.65 -45.19,-47.46 -75.29,-61.5 -36.35,7.03 -78.56,76.43 -105.57,102.36 -19.01,18.24 -34.93,31.06 -54.7,49.35 -36.96,34.16 -51.1,25.33 -71.17,22.8 5.99,4.49 -2.04,0.98 9.2,5.97l30.96 1.78c61.95,-15.42 162.99,-142.86 192.6,-159.09l145.28 118.58c36.45,23.98 51.15,20.61 76.18,0.15 0.84,-0.69 1.89,-1.6 2.73,-2.29l7.88 -6.74c18.3,-15.69 54.47,-46.27 79.03,-54.94 36.32,0.06 177.31,159.02 555.85,164.86l-66.85 -50.56c-137.6,-109.45 -167.91,-140.06 -293.84,-259.95 -27.26,-25.94 -82.97,-94.79 -109.95,-107.99 -23.04,13.01 -78.95,77.47 -118.34,95.73 -43.52,-17.53 -173.64,-189 -208.28,-180.83 -10.24,2.42 -78.84,90.09 -90.19,103.95 -72.84,88.91 -78.4,107.32 -179.25,204.15 -18.02,17.3 -27.47,26.97 -47.56,47.05 -14.19,14.18 -34.76,25.95 -51.31,41.61 -54.27,-22.38 -95.1,-89.18 -136.36,-68.54 -62.41,31.22 -86.39,85.97 -127.2,62.73 -45.64,-25.99 -89.57,-56.77 -128.87,-89.32l-119.72 -93.57c-11.18,0.25 -161.65,146.15 -187.4,168 -102.38,86.87 -15.18,22.45 -129.58,82.48z"/>
     <path class="fil4" d="M2985.51 2038.24c-30.21,-60.14 -60.37,-108.75 -27.87,-194.8 20.6,-54.56 72.37,-103.35 137.21,-118.24 121.59,-27.92 241.26,69.61 231.61,204.54 -1.33,18.54 -5.46,27.17 -10.51,51.47 35.21,-78.51 32.37,-127.21 -20.52,-207.54 -66.19,-100.53 -286,-112.88 -351.04,56.44 -28.29,73.65 -4.66,176.4 41.13,208.13z"/>
    </g>
    <g>
     <path class="fil5" d="M-10.57 2036.44c179.24,91.06 507.96,-234.51 597.49,-365.48 120.71,-176.58 104.67,-21.31 301.27,103.59 224.9,142.88 332.22,177.43 503.11,-55.17 34.4,-46.83 52.68,-141.16 67.71,-82.24 33.39,130.86 368.54,247.84 500.2,251.26l113.57 -8.49c-107.61,9.84 -119.78,18.54 -226.4,-2.06 -85.89,-16.59 -376.94,-129.22 -398.58,-239.88 -12.94,22.71 -33.78,73.31 -45.73,90.08 -100.55,141.09 -206.17,227.13 -373.82,149 -360.84,-168.15 -302.28,-381.16 -430.8,-199.65 -92.34,130.43 -428.89,453.81 -608.03,359.03z"/>
    </g>
    <path class="fil1" d="M-10.57 2036.44c150.45,93.82 513.49,-216.45 602.76,-362.26 108.62,-177.4 102.38,-3.18 291.17,108.53 232.84,137.77 307.6,196.73 513.33,-58.99 16.31,-20.28 44.21,-96.53 55.78,-101.34 -16.57,77.29 319.87,317.91 620.32,257.54"/>
    <g>
     <path class="fil5" d="M46.58 2084.51c169.8,161.88 488.98,-9.42 625.82,-140.75l0.01 -0.01c65.24,-66.14 160.36,244.32 373.38,-3.44 48.07,-55.91 197.71,234.15 404.6,16.54 -195.44,216.89 -365.74,-45.54 -394.67,-9.48 -204.56,255.02 -337.41,-24.55 -368.92,8.64 -130.43,137.4 -479.47,290.16 -640.23,128.5z"/>
    </g>
    <path class="fil1" d="M46.58 2084.51c118.46,148.53 501.37,19.7 633.02,-134.62 40.15,-47.05 191.16,246.75 371.15,-6.05 30.54,-42.89 226.32,231.25 399.63,13.01"/>
    <g>
     <path class="fil5" d="M2037.33 2233.93c-256.19,138.12 -568.63,-180.85 -628.61,-139.86 -83.72,57.23 -73.17,107.88 -203.43,90.92 -156.01,-20.31 -60.51,-131.91 -214.44,-12.83 -166.71,128.95 -148.93,122.58 -378.9,70.12l-96.81 -22.25c377.78,76.67 264.83,86.56 520.31,-100.3 70.17,-51.32 78.03,36.09 171.55,45.74 118.12,12.19 104.16,-29.37 192.08,-85.98 80.56,-51.87 372.69,288.96 638.25,154.43z"/>
    </g>
    <path class="fil1" d="M2037.33 2233.93c-214.43,145.29 -569.22,-189.62 -633.43,-147.15 -82.16,54.36 -60.74,86.49 -154.09,88.9 -72.88,1.88 -73.24,-1.97 -168.07,-61.74 -19.44,-12.25 -29.47,0.62 -189.24,129.39 -81.04,65.31 -259.94,-3.91 -377.37,-23.31"/>
   </g>
  </g>
  <path class="fil1" d="M296.12 2724.41c-47.23,-169.46 -72.48,-348.08 -72.48,-532.6 0,-2603.75 3958.94,-2603.75 3958.94,0 0,182.54 -24.71,359.3 -70.96,527.14 -4344.33,2.15 -186.07,13.14 -3815.5,5.47z"/>
  <line class="fil1 str2" x1="1133.26" y1="3098.64" x2="2163.2" y2= "3098.64" />
  <line class="fil1 str2" x1="2272.2" y1="3098.64" x2="3302.14" y2= "3098.64" />
  <path class="fil0" d="M2841 2544.82c0,0 -18.63,395.47 -18.63,406.41 0,10.94 -6.74,79.13 -54.72,87.54 -47.98,8.42 -204.55,5.9 -224.76,2.53 -20.2,-3.37 -51.35,-27.78 -58.92,-77.44 -7.58,-49.67 -27.94,-420.86 -27.94,-420.86 0,0 -20.48,-5.21 -26.34,-5.63 -5.86,-0.42 -3.53,-87.45 -2.69,-89.97 0.84,-2.51 33.75,-3.78 33.39,-10.7 -0.37,-6.92 34.18,-139.97 152.84,-156.09l28.16 -167.4 82.81 22.29 -19.66 152.24c0,0 96.87,33.7 126.19,150.93l34.48 9.56c0,0 4.18,84.21 -0.92,89.95 -5.1,5.73 -23.3,6.64 -23.3,6.64z"/>
  <g id="_2067433270960">
   <path class="fil6" d="M2791.78 2837.86c-3.35,78.47 -2.62,118.41 -18.72,138.62 -16.08,20.19 -49.03,20.91 -119.64,20.91 -70.61,-0.18 -103.67,-1.06 -120.73,-21.44 -17.03,-20.36 -17.85,-60.23 -23.5,-138.62 -3.47,-50 -7.25,-100.18 -10.6,-150.45 -3.34,-50.18 -6.3,-100.36 -8.51,-150.28 52.37,0.18 104.74,0.49 157.12,0.53 52.42,0.04 104.84,0 157.26,-0.09 -1.44,49.91 -3.56,100.18 -5.86,150.36 -2.3,50.18 -4.74,100.45 -6.82,150.45zm-328.4 -358.21c3.91,-2.49 94.24,-2.85 184.31,-2.67 90.07,0.18 179.92,1.24 182.75,2.4 2.13,7.65 2.26,23.04 0.43,30.96 -4.21,1.96 -95.33,2.98 -185.78,2.76 -90.42,-0.22 -180.18,-1.6 -181.7,-3.47 -2.39,-6.49 -2.35,-23.22 0,-29.98zm29.27 -26.87c18.16,-88.97 85.86,-132.52 153.47,-132.13 67.57,0.4 135.63,44.84 154.04,132.39 -51.29,0.09 -102.53,0.13 -153.78,0.09 -51.25,-0.05 -102.49,-0.26 -153.74,-0.35zm170.06 -287.65c2.87,-0.62 19.02,4.36 22.97,5.43 -5.91,41.11 -11.85,82.12 -17.85,123.14 -7.9,-0.44 -15.76,-0.89 -23.62,-1.42 6.26,-42.35 12.42,-84.7 18.5,-127.14zm29.36 134.79c6.26,-49.73 12.38,-99.47 18.41,-149.2 -20.63,-5.25 -41.21,-10.5 -61.79,-15.75 -8.91,53.03 -17.98,106.06 -27.19,159.08 -38.09,5.87 -70.42,23.87 -96.02,50.89 -25.64,27.07 -44.73,63.53 -55.98,106.14 -8.99,1.6 -17.98,3.12 -26.93,4.63 -2.91,1.69 -1.87,75.36 -1.87,75.45 1.39,4.18 22.49,6.67 26.92,7.65 1.83,53.38 4.95,107.93 8.64,162.47 3.69,54.45 8.12,108.99 11.81,162.47 5.95,79.98 13.64,119.67 36.7,139.6 23.06,19.93 61.45,20.11 129.24,20.29 69.05,0 107.26,-0.09 129.06,-20.29 21.8,-20.2 27.23,-60.59 30.58,-141.2 2.26,-53.74 4.45,-107.66 6.6,-161.4 2.15,-53.83 4.39,-107.93 6.78,-162.11 35.78,-6.32 27.31,10.67 24.75,-81.23 -5.65,-4.89 -20.93,-5.43 -28.31,-6.76 -8.95,-31.32 -27.06,-67.54 -50.29,-96.54 -23.23,-29.01 -51.59,-51.16 -81.12,-54.19z"/>
   <path class="fil7" d="M2747.83 2695.86c5.39,-21.44 -6.56,-22.6 -20.59,-34.7 7.78,-6.05 33.53,-22.78 17.16,-35.23 -10.42,-7.92 -29.66,11.66 -38.48,18.69 -20.11,16.02 -13.12,23.22 3.6,35.68 13.9,10.41 22.06,22.6 38.3,15.57z"/>
   <path class="fil8" d="M2576.5 2660.89c-13.51,12.46 -25.93,12.28 -19.63,34.61 15.2,6.76 24.06,-4.27 36.48,-14.5 14.2,-11.83 27.97,-19.04 5.25,-35.5 -9.86,-7.12 -27.97,-26.33 -38.56,-20.55 -19.32,10.32 8.82,29.98 16.46,35.94z"/>
   <path class="fil9" d="M2618.37 2733.49c-24.28,17.53 41.21,65.58 70.79,20.2 5.08,-7.83 4.47,-18.77 -4.78,-21.8 -11.2,-3.65 -13.07,6.23 -20.93,11.65 -23.41,16.37 -27.58,-22.78 -45.08,-10.05z"/>
   <path class="fil10" d="M2766.2 2946.67c13.33,-30.34 -22.32,-45.55 -33.27,-25.98 -15.46,27.76 23.97,46.89 33.27,25.98z"/>
   <path class="fil11" d="M2705.83 2978.62c8.55,-27.85 -28.71,-42.98 -36.48,-17.97 -9.59,31.05 29.23,41.46 36.48,17.97z"/>
   <path class="fil12" d="M2639.99 2918.82c8.34,-30.16 -32.4,-39.77 -37.3,-13.35 -5.13,28.03 30.05,39.59 37.3,13.35z"/>
   <path class="fil13" d="M2713 2862.68c-21.54,9.43 -13.81,47.96 12.72,41.29 24.49,-6.23 12.77,-52.5 -12.72,-41.29z"/>
   <path class="fil14" d="M2759.99 2829.41c-25.88,11.57 -8.42,51.34 15.42,39.59 20.54,-10.14 9.82,-50.8 -15.42,-39.59z"/>
   <path class="fil15" d="M2544.58 2944.81c3.74,27.14 41.61,24.29 38.35,-5.96 -3.12,-29.18 -42.12,-22.07 -38.35,5.96z"/>
   <path class="fil16" d="M2598 2974.88c5.91,25.98 43.82,19.75 37.56,-10.14 -5.6,-27.31 -43.99,-18.24 -37.56,10.14z"/>
   <path class="fil17" d="M2608.99 2831.01c-24.1,8.81 -13.77,49.56 12.29,41.2 23.41,-7.74 11.51,-50 -12.29,-41.2z"/>
   <path class="fil18" d="M2527.56 2810.37c-23.23,13.43 -6.47,49.11 16.42,38.88 23.89,-10.68 6.74,-52.23 -16.42,-38.88z"/>
   <path class="fil19" d="M2561.31 2865.71c-27.66,11.48 -8.08,51.6 14.98,39.59 20.24,-10.41 8.42,-49.29 -14.98,-39.59z"/>
   <path class="fil20" d="M2655.89 2917.85c2.56,29.54 43.21,23.05 38.17,-5.78 -4.21,-24.2 -40.78,-24.2 -38.17,5.78z"/>
  </g>
  <path class="fil21" d="M745.58 3353.65c11.16,3.8 19.76,10.6 25.93,20.33 6.17,9.73 9.04,21.39 8.73,35.04 -0.19,12.47 -2.68,23.76 -7.48,33.79 -4.8,10.04 -11.66,18.64 -20.57,25.69 -8.92,7.04 -19.77,12.53 -32.67,16.34 -12.9,3.8 -27.49,5.74 -43.77,5.74 -29.43,0 -52.12,-6.67 -68.08,-19.95 -15.96,-13.28 -25.38,-32.92 -28.18,-58.86 -1.19,-9.79 -1.93,-21.51 -2.24,-35.04 -0.31,-13.53 -0.31,-27.75 0,-42.52 0.31,-14.78 0.87,-29.62 1.62,-44.39 0.75,-14.78 1.68,-28.43 2.87,-40.9 6.67,-3.99 14.46,-7.3 23.44,-9.85 8.98,-2.56 18.52,-4.49 28.56,-5.74 10.04,-1.25 20.33,-1.93 30.8,-1.99 10.47,-0.06 20.45,0.44 29.93,1.62 9.48,1.19 18.14,2.87 26.06,5.11 7.92,2.24 14.34,5.05 19.33,8.35 9.98,6.67 17.4,14.53 22.32,23.69 4.92,9.16 7.67,18.52 8.35,28.18 0.69,9.66 -0.75,19.02 -4.24,28.06 -3.49,9.04 -8.73,16.65 -15.71,22.82 -0.69,0.69 -1.37,1.31 -2.12,2 -0.75,0.68 -1.68,1.5 -2.87,2.49zm-79.81 61.23c2.99,1.68 6.36,2.55 10.1,2.62 3.74,0.06 7.3,-0.63 10.6,-2.12 3.68,-1.5 6.17,-3.8 7.61,-6.86 1.43,-3.05 1.93,-6.61 1.62,-10.6 -0.31,-3.3 -1.56,-6.05 -3.62,-8.23 -2.06,-2.18 -4.67,-3.68 -7.86,-4.49 -2.49,-0.5 -5.55,-0.68 -9.23,-0.62 -3.68,0.06 -6.67,1.31 -8.98,3.62 -0.31,4.3 -0.44,8.73 -0.37,13.22 0.06,4.49 0.13,8.98 0.13,13.47zm-1.75 -88.04c1.99,1.18 4.24,1.87 6.73,2.12 2.49,0.25 4.8,-0.06 6.98,-1 2.18,-0.93 3.99,-2.49 5.49,-4.74 1.5,-2.24 2.24,-5.36 2.24,-9.35 -0.19,-3.49 -1.19,-6.11 -3.12,-7.86 -1.93,-1.75 -4.05,-2.93 -6.48,-3.49 -2.43,-0.56 -4.74,-0.56 -6.98,0 -2.24,0.56 -3.87,1.43 -4.86,2.62 -1,2.31 -1.56,5.55 -1.75,9.73 -0.19,4.18 0.44,8.17 1.75,11.97z"/>
  <path id="_1_0" class="fil21" d="M952.07 3485.33c-8.98,0.68 -18.02,1 -27.06,1 -9.04,0 -17.33,-0.06 -24.81,-0.25 -8.79,-0.19 -17.27,-0.44 -25.44,-0.75 -6.48,0 -13.65,-0.56 -21.45,-1.62 -7.79,-1.06 -15.27,-3.43 -22.45,-7.11 -7.17,-3.68 -13.47,-9.04 -18.95,-16.21 -5.48,-7.17 -9.16,-16.9 -10.97,-29.18 -1.31,-8.79 -2.49,-20.45 -3.49,-34.91 -1,-14.47 -1.56,-30.18 -1.62,-47.14 -0.06,-16.96 0.31,-34.29 1.12,-52 0.81,-17.71 2.49,-34.29 4.99,-49.75 3.8,-3.49 8.54,-6.3 14.09,-8.48 5.55,-2.18 11.41,-3.43 17.58,-3.87 6.17,-0.44 12.35,0.12 18.58,1.62 6.24,1.5 11.97,4.3 17.21,8.48 5.24,4.18 9.73,9.67 13.47,16.59 3.74,6.92 6.17,15.4 7.36,25.56 0.68,7.29 1.19,15.84 1.62,25.56 0.44,9.73 0.68,19.77 0.87,30.05 0.19,10.29 0.19,20.39 0,30.3 -0.19,9.91 -0.31,18.77 -0.5,26.56 5.67,-0.5 12.53,-0.81 20.7,-0.87 8.17,-0.06 16.9,-0.06 26.19,0.12 9.29,0.19 18.83,0.56 28.56,1.25 9.73,0.68 19.02,1.5 27.81,2.49 3.31,6.3 5.43,12.66 6.24,19.08 0.81,6.42 0.56,12.59 -0.75,18.58 -1.31,5.99 -3.55,11.66 -6.61,16.96 -3.05,5.3 -6.8,9.98 -11.1,13.97 -4.3,3.99 -9.16,7.23 -14.46,9.73 -5.3,2.49 -10.91,3.93 -16.71,4.24z"/>
  <path id="_2" class="fil21" d="M1013.55 3427.47c-0.31,-5.68 -0.56,-13.34 -0.75,-22.94 -0.19,-9.67 -0.25,-20.39 -0.25,-32.11 0,-11.78 0.12,-24.07 0.37,-37.04 0.25,-12.9 0.56,-25.44 1,-37.59 0.44,-12.16 0.93,-23.5 1.5,-34.11 0.56,-10.6 1.31,-19.39 2.12,-26.37 6.98,-0.68 15.21,-1.18 24.69,-1.62 9.48,-0.44 19.64,-0.69 30.55,-0.87 10.91,-0.19 22.13,-0.25 33.79,-0.25 11.66,0 22.94,0.12 33.92,0.37 10.98,0.25 21.39,0.62 31.17,1.12 9.79,0.5 18.46,1.06 25.94,1.62 1.5,2.18 2.87,5.55 4.11,10.1 1.25,4.61 1.87,9.67 1.87,15.28 0,5.55 -0.75,11.29 -2.24,17.21 -1.5,5.92 -4.12,11.29 -7.86,16.15 -3.74,4.8 -8.92,8.73 -15.46,11.85 -6.55,3.05 -14.84,4.61 -24.81,4.61l-51.38 0 0 12.97c3.74,0 8.86,-0.12 15.34,-0.37 6.48,-0.25 13.41,-0.31 20.7,-0.25 7.3,0.06 14.65,0.44 21.95,1.12 7.3,0.68 13.65,1.81 18.95,3.49 3.68,8.29 5.74,16.21 6.23,23.69 0.5,7.48 -0.69,14.15 -3.49,19.95 -2.81,5.8 -7.23,10.54 -13.22,14.09 -5.98,3.55 -13.53,5.61 -22.69,6.11 -3.18,0.19 -6.11,0.25 -8.85,0.25 -2.75,0 -5.67,0 -8.86,0 -3.18,0 -6.79,-0.06 -10.85,-0.12 -4.05,-0.06 -9.04,-0.12 -14.84,-0.12l0 15.34 5.74 0 80.06 0c4.68,6.67 7.67,14.03 9.1,22.2 1.43,8.17 0.81,15.96 -1.75,23.44 -2.56,7.48 -7.3,14.03 -14.22,19.7 -6.92,5.67 -16.27,9.23 -28.06,10.72 -3.49,0.5 -8.04,0.93 -13.71,1.25 -5.67,0.31 -11.78,0.56 -18.46,0.75 -6.67,0.19 -13.53,0.19 -20.7,0.12 -7.17,-0.06 -14.03,-0.19 -20.58,-0.37 -6.61,-0.19 -12.53,-0.5 -17.89,-1 -5.3,-0.5 -9.48,-1.06 -12.47,-1.75 -11.85,-2.99 -20.51,-8.92 -26,-17.83 -5.48,-8.92 -8.73,-21.82 -9.73,-38.78z"/>
  <path id="_3" class="fil21" d="M1368.44 3344.79l0 -93.27c4.99,-6.17 10.72,-10.79 17.21,-13.84 6.48,-3.05 13.03,-4.8 19.64,-5.24 6.67,-0.44 13.15,0.37 19.58,2.37 6.36,1.99 12.03,4.92 17.02,8.85 4.99,3.93 9.04,8.73 12.1,14.46 3.05,5.74 4.61,12.1 4.61,19.08 0,5.18 0.06,12.35 0.12,21.57 0.06,9.23 0.19,19.7 0.25,31.42 0.06,11.72 0.19,24.13 0.25,37.28 0.06,13.16 0.06,26.13 0,38.91 -0.06,12.78 -0.31,25 -0.62,36.54 -0.31,11.54 -0.81,21.51 -1.5,29.8 -5.3,5.3 -12.41,9.48 -21.32,12.47 -8.91,2.99 -18.33,4.18 -28.31,3.49 -9.98,-0.69 -19.95,-3.43 -29.93,-8.36 -9.98,-4.92 -18.77,-12.59 -26.44,-23.07 -3.49,-4.8 -7.11,-10.29 -10.85,-16.46 -3.74,-6.17 -7.3,-12.22 -10.72,-18.21 -3.43,-5.98 -6.42,-11.41 -9.1,-16.21 -2.68,-4.8 -4.74,-8.42 -6.23,-10.72 -0.31,-0.81 -0.81,-1.56 -1.37,-2.12 -0.56,-0.56 -1.12,-1.31 -1.62,-2.12 -0.37,0 -0.68,0.06 -0.93,0.13 -0.25,0.06 -0.56,0.12 -0.93,0.12 0.19,7.48 0.44,14.28 0.75,20.45 0.31,6.17 0.63,12.35 0.88,18.58 0.25,6.23 0.44,12.78 0.62,19.58 0.19,6.8 0.19,14.71 0,23.69 -6.8,5.67 -13.78,9.66 -20.82,11.97 -7.04,2.31 -13.9,3.43 -20.57,3.37 -6.67,-0.06 -12.91,-1.25 -18.83,-3.49 -5.92,-2.24 -11.03,-5.18 -15.46,-8.85 -4.43,-3.68 -7.92,-7.79 -10.6,-12.47 -2.68,-4.68 -4.05,-9.48 -4.24,-14.46 -0.31,-10.29 -0.62,-21.7 -0.87,-34.17 -0.25,-12.47 -0.44,-25.32 -0.62,-38.53 -0.19,-13.22 -0.25,-26.37 -0.25,-39.53 0,-13.15 0.06,-25.38 0.13,-36.79 0.06,-11.41 0.31,-21.51 0.62,-30.43 0.31,-8.91 0.81,-15.84 1.37,-20.82 5.99,-4.99 13.41,-9.04 22.2,-12.1 8.79,-3.05 17.9,-4.43 27.31,-3.99 9.42,0.44 18.52,2.93 27.31,7.48 8.79,4.55 16.21,11.85 22.2,21.82 4.3,7.29 8.17,13.9 11.6,19.82 3.43,5.92 6.74,11.78 9.98,17.58 3.24,5.8 6.61,11.85 10.1,18.08 3.49,6.24 7.48,13.34 11.97,21.33 0.5,1 1.06,1.93 1.62,2.87 0.56,0.93 1.12,1.81 1.62,2.62 0.19,-0.19 0.37,-0.25 0.56,-0.25 0.19,0 0.37,-0.06 0.56,-0.25z"/>
  <path id="_4" class="fil21" d="M1706.36 3354.27c0,7.67 -0.68,16.27 -2.12,25.94 -1.43,9.66 -3.99,19.52 -7.73,29.55 -3.74,10.04 -8.79,19.89 -15.09,29.55 -6.3,9.66 -14.28,18.27 -23.94,25.81 -9.67,7.55 -21.2,13.66 -34.67,18.21 -13.47,4.55 -29.24,6.86 -47.38,6.86 -14.97,0 -28,-1.06 -39.16,-3.24 -11.16,-2.18 -20.51,-5.8 -28.06,-10.85 -7.55,-5.05 -13.47,-11.66 -17.71,-19.83 -4.24,-8.17 -6.86,-18.21 -7.86,-30.18 -1.81,-20.45 -2.68,-45.82 -2.62,-76.19 0.06,-30.36 1.18,-64.41 3.37,-102.13 6.79,-3.99 14.9,-7.29 24.19,-9.85 9.29,-2.56 19.14,-4.43 29.43,-5.61 10.29,-1.19 20.82,-1.68 31.55,-1.5 10.72,0.19 21.01,0.81 30.8,2 9.79,1.19 18.89,2.8 27.18,4.99 8.29,2.18 15.21,4.67 20.7,7.48 20.14,10.66 34.98,24.75 44.64,42.27 9.66,17.52 14.46,39.78 14.46,66.71zm-125.57 56.99c4.8,-0.19 9.6,-0.68 14.4,-1.5 4.8,-0.81 9.1,-3.05 12.97,-6.61 3.8,-3.56 6.92,-8.92 9.29,-16.09 2.43,-7.17 3.62,-17.02 3.62,-29.68 0,-12.16 -1.75,-21.32 -5.24,-27.56 -3.49,-6.24 -7.86,-10.54 -13.16,-12.97 -5.3,-2.43 -11.03,-3.43 -17.08,-3.12 -6.05,0.31 -11.54,1 -16.52,2 0,3.99 -0.06,9.42 -0.12,16.21 -0.06,6.8 -0.13,14.28 -0.13,22.32 0,8.04 0,16.34 0,24.81 0,8.48 0.06,16.21 0.25,23.19 0,2 0.44,3.56 1.37,4.74 0.93,1.19 2,2.06 3.24,2.62 1.24,0.56 2.49,1 3.74,1.25 1.25,0.25 2.37,0.37 3.37,0.37z"/>
  <path id="_5" class="fil21" d="M2409.29 3353.65c11.16,3.8 19.76,10.6 25.93,20.33 6.17,9.73 9.04,21.39 8.73,35.04 -0.19,12.47 -2.68,23.76 -7.48,33.79 -4.8,10.04 -11.66,18.64 -20.57,25.69 -8.92,7.04 -19.77,12.53 -32.67,16.34 -12.9,3.8 -27.49,5.74 -43.77,5.74 -29.43,0 -52.12,-6.67 -68.08,-19.95 -15.96,-13.28 -25.38,-32.92 -28.18,-58.86 -1.19,-9.79 -1.93,-21.51 -2.24,-35.04 -0.31,-13.53 -0.31,-27.75 0,-42.52 0.31,-14.78 0.87,-29.62 1.62,-44.39 0.75,-14.78 1.68,-28.43 2.87,-40.9 6.67,-3.99 14.46,-7.3 23.44,-9.85 8.98,-2.56 18.52,-4.49 28.56,-5.74 10.04,-1.25 20.33,-1.93 30.8,-1.99 10.47,-0.06 20.45,0.44 29.93,1.62 9.48,1.19 18.14,2.87 26.06,5.11 7.92,2.24 14.34,5.05 19.33,8.35 9.98,6.67 17.4,14.53 22.32,23.69 4.92,9.16 7.67,18.52 8.35,28.18 0.69,9.66 -0.75,19.02 -4.24,28.06 -3.49,9.04 -8.73,16.65 -15.71,22.82 -0.69,0.69 -1.37,1.31 -2.12,2 -0.75,0.68 -1.68,1.5 -2.87,2.49zm-79.81 61.23c2.99,1.68 6.36,2.55 10.1,2.62 3.74,0.06 7.3,-0.63 10.6,-2.12 3.68,-1.5 6.17,-3.8 7.61,-6.86 1.43,-3.05 1.93,-6.61 1.62,-10.6 -0.31,-3.3 -1.56,-6.05 -3.62,-8.23 -2.06,-2.18 -4.67,-3.68 -7.86,-4.49 -2.49,-0.5 -5.55,-0.68 -9.23,-0.62 -3.68,0.06 -6.67,1.31 -8.98,3.62 -0.31,4.3 -0.44,8.73 -0.37,13.22 0.06,4.49 0.13,8.98 0.13,13.47zm-1.75 -88.04c1.99,1.18 4.24,1.87 6.73,2.12 2.49,0.25 4.8,-0.06 6.98,-1 2.18,-0.93 3.99,-2.49 5.49,-4.74 1.5,-2.24 2.24,-5.36 2.24,-9.35 -0.19,-3.49 -1.19,-6.11 -3.12,-7.86 -1.93,-1.75 -4.05,-2.93 -6.48,-3.49 -2.43,-0.56 -4.74,-0.56 -6.98,0 -2.24,0.56 -3.87,1.43 -4.86,2.62 -1,2.31 -1.56,5.55 -1.75,9.73 -0.19,4.18 0.44,8.17 1.75,11.97z"/>
  <path id="_6" class="fil21" d="M2704.07 3400.16c-1.81,15.96 -6.55,29.68 -14.09,41.15 -7.54,11.47 -16.77,20.95 -27.68,28.43 -10.91,7.48 -22.88,13.03 -36.04,16.58 -13.15,3.55 -26.19,5.36 -39.15,5.36 -8.67,0 -17.4,-0.37 -26.31,-1.12 -8.92,-0.75 -17.52,-2.24 -25.94,-4.49 -8.42,-2.25 -16.4,-5.43 -24.07,-9.48 -7.67,-4.05 -14.53,-9.48 -20.57,-16.21 -6.05,-6.73 -11.29,-14.9 -15.59,-24.56 -4.3,-9.66 -7.42,-21.2 -9.23,-34.67 -1.68,-11.29 -2.68,-23.44 -2.99,-36.41 -0.31,-12.97 -0.19,-26.25 0.37,-39.9 0.56,-13.65 1.56,-27.31 2.87,-41.02 1.31,-13.72 2.93,-27.06 4.74,-40.03 1.81,-1.99 5.18,-3.87 10.1,-5.61 4.92,-1.75 10.6,-2.93 17.08,-3.62 6.48,-0.69 13.28,-0.75 20.33,-0.25 7.04,0.5 13.65,2 19.82,4.49 6.17,2.49 11.41,6.11 15.84,10.85 4.43,4.74 7.11,10.85 8.11,18.33 0.31,2.18 0.5,6.17 0.5,11.97 0,5.8 0.06,12.66 0.12,20.57 0.06,7.92 0.19,16.46 0.25,25.69 0.06,9.23 0.25,18.46 0.5,27.68 0.25,9.23 0.68,18.02 1.25,26.31 0.56,8.29 1.37,15.46 2.37,21.45 1,5.49 3.31,9.79 6.98,12.97 3.68,3.18 7.67,4.86 11.97,5.11 4.3,0.25 8.42,-1.19 12.34,-4.24 3.93,-3.05 6.55,-8.04 7.86,-14.84 1,-4.99 1.93,-11.29 2.75,-18.95 0.81,-7.67 1.5,-16.02 1.99,-25.06 0.5,-9.04 0.81,-18.52 1,-28.43 0.19,-9.91 0.12,-19.58 -0.13,-29.05 -0.25,-9.48 -0.68,-18.46 -1.37,-26.93 -0.68,-8.48 -1.56,-15.9 -2.74,-22.2 3.18,-3.31 7.67,-6.17 13.59,-8.6 5.92,-2.43 12.35,-4.05 19.33,-4.99 6.98,-0.93 14.15,-0.81 21.57,0.25 7.42,1.06 14.22,3.43 20.45,7.11 6.24,3.68 11.47,8.79 15.71,15.34 4.24,6.55 6.86,14.9 7.86,25.06 0.5,5.67 1,10.85 1.5,15.59 0.5,4.74 0.93,9.48 1.25,14.22 0.31,4.74 0.56,9.73 0.63,14.97 0.06,5.24 -0.06,11.16 -0.37,17.83 -0.31,6.67 -0.87,14.28 -1.62,22.94 -0.75,8.66 -1.81,18.77 -3.12,30.43z"/>
  <path id="_7" class="fil21" d="M2895.85 3353.65c11.16,3.8 19.76,10.6 25.93,20.33 6.17,9.73 9.04,21.39 8.73,35.04 -0.19,12.47 -2.68,23.76 -7.48,33.79 -4.8,10.04 -11.66,18.64 -20.57,25.69 -8.92,7.04 -19.77,12.53 -32.67,16.34 -12.9,3.8 -27.49,5.74 -43.77,5.74 -29.43,0 -52.12,-6.67 -68.08,-19.95 -15.96,-13.28 -25.38,-32.92 -28.18,-58.86 -1.19,-9.79 -1.93,-21.51 -2.24,-35.04 -0.31,-13.53 -0.31,-27.75 0,-42.52 0.31,-14.78 0.87,-29.62 1.62,-44.39 0.75,-14.78 1.68,-28.43 2.87,-40.9 6.67,-3.99 14.46,-7.3 23.44,-9.85 8.98,-2.56 18.52,-4.49 28.56,-5.74 10.04,-1.25 20.33,-1.93 30.8,-1.99 10.47,-0.06 20.45,0.44 29.93,1.62 9.48,1.19 18.14,2.87 26.06,5.11 7.92,2.24 14.34,5.05 19.33,8.35 9.98,6.67 17.4,14.53 22.32,23.69 4.92,9.16 7.67,18.52 8.35,28.18 0.69,9.66 -0.75,19.02 -4.24,28.06 -3.49,9.04 -8.73,16.65 -15.71,22.82 -0.69,0.69 -1.37,1.31 -2.12,2 -0.75,0.68 -1.68,1.5 -2.87,2.49zm-79.81 61.23c2.99,1.68 6.36,2.55 10.1,2.62 3.74,0.06 7.3,-0.63 10.6,-2.12 3.68,-1.5 6.17,-3.8 7.61,-6.86 1.43,-3.05 1.93,-6.61 1.62,-10.6 -0.31,-3.3 -1.56,-6.05 -3.62,-8.23 -2.06,-2.18 -4.67,-3.68 -7.86,-4.49 -2.49,-0.5 -5.55,-0.68 -9.23,-0.62 -3.68,0.06 -6.67,1.31 -8.98,3.62 -0.31,4.3 -0.44,8.73 -0.37,13.22 0.06,4.49 0.13,8.98 0.13,13.47zm-1.75 -88.04c1.99,1.18 4.24,1.87 6.73,2.12 2.49,0.25 4.8,-0.06 6.98,-1 2.18,-0.93 3.99,-2.49 5.49,-4.74 1.5,-2.24 2.24,-5.36 2.24,-9.35 -0.19,-3.49 -1.19,-6.11 -3.12,-7.86 -1.93,-1.75 -4.05,-2.93 -6.48,-3.49 -2.43,-0.56 -4.74,-0.56 -6.98,0 -2.24,0.56 -3.87,1.43 -4.86,2.62 -1,2.31 -1.56,5.55 -1.75,9.73 -0.19,4.18 0.44,8.17 1.75,11.97z"/>
  <path id="_8" class="fil21" d="M3109.83 3353.65c11.16,3.8 19.76,10.6 25.93,20.33 6.17,9.73 9.04,21.39 8.73,35.04 -0.19,12.47 -2.68,23.76 -7.48,33.79 -4.8,10.04 -11.66,18.64 -20.57,25.69 -8.92,7.04 -19.77,12.53 -32.67,16.34 -12.9,3.8 -27.49,5.74 -43.77,5.74 -29.43,0 -52.12,-6.67 -68.08,-19.95 -15.96,-13.28 -25.38,-32.92 -28.18,-58.86 -1.19,-9.79 -1.93,-21.51 -2.24,-35.04 -0.31,-13.53 -0.31,-27.75 0,-42.52 0.31,-14.78 0.87,-29.62 1.62,-44.39 0.75,-14.78 1.68,-28.43 2.87,-40.9 6.67,-3.99 14.46,-7.3 23.44,-9.85 8.98,-2.56 18.52,-4.49 28.56,-5.74 10.04,-1.25 20.33,-1.93 30.8,-1.99 10.47,-0.06 20.45,0.44 29.93,1.62 9.48,1.19 18.14,2.87 26.06,5.11 7.92,2.24 14.34,5.05 19.33,8.35 9.98,6.67 17.4,14.53 22.32,23.69 4.92,9.16 7.67,18.52 8.35,28.18 0.69,9.66 -0.75,19.02 -4.24,28.06 -3.49,9.04 -8.73,16.65 -15.71,22.82 -0.69,0.69 -1.37,1.31 -2.12,2 -0.75,0.68 -1.68,1.5 -2.87,2.49zm-79.81 61.23c2.99,1.68 6.36,2.55 10.1,2.62 3.74,0.06 7.3,-0.63 10.6,-2.12 3.68,-1.5 6.17,-3.8 7.61,-6.86 1.43,-3.05 1.93,-6.61 1.62,-10.6 -0.31,-3.3 -1.56,-6.05 -3.62,-8.23 -2.06,-2.18 -4.67,-3.68 -7.86,-4.49 -2.49,-0.5 -5.55,-0.68 -9.23,-0.62 -3.68,0.06 -6.67,1.31 -8.98,3.62 -0.31,4.3 -0.44,8.73 -0.37,13.22 0.06,4.49 0.13,8.98 0.13,13.47zm-1.75 -88.04c1.99,1.18 4.24,1.87 6.73,2.12 2.49,0.25 4.8,-0.06 6.98,-1 2.18,-0.93 3.99,-2.49 5.49,-4.74 1.5,-2.24 2.24,-5.36 2.24,-9.35 -0.19,-3.49 -1.19,-6.11 -3.12,-7.86 -1.93,-1.75 -4.05,-2.93 -6.48,-3.49 -2.43,-0.56 -4.74,-0.56 -6.98,0 -2.24,0.56 -3.87,1.43 -4.86,2.62 -1,2.31 -1.56,5.55 -1.75,9.73 -0.19,4.18 0.44,8.17 1.75,11.97z"/>
  <path id="_9" class="fil21" d="M3316.33 3485.33c-8.98,0.68 -18.02,1 -27.06,1 -9.04,0 -17.33,-0.06 -24.81,-0.25 -8.79,-0.19 -17.27,-0.44 -25.44,-0.75 -6.48,0 -13.65,-0.56 -21.45,-1.62 -7.79,-1.06 -15.27,-3.43 -22.45,-7.11 -7.17,-3.68 -13.47,-9.04 -18.95,-16.21 -5.48,-7.17 -9.16,-16.9 -10.97,-29.18 -1.31,-8.79 -2.49,-20.45 -3.49,-34.91 -1,-14.47 -1.56,-30.18 -1.62,-47.14 -0.06,-16.96 0.31,-34.29 1.12,-52 0.81,-17.71 2.49,-34.29 4.99,-49.75 3.8,-3.49 8.54,-6.3 14.09,-8.48 5.55,-2.18 11.41,-3.43 17.58,-3.87 6.17,-0.44 12.35,0.12 18.58,1.62 6.24,1.5 11.97,4.3 17.21,8.48 5.24,4.18 9.73,9.67 13.47,16.59 3.74,6.92 6.17,15.4 7.36,25.56 0.68,7.29 1.19,15.84 1.62,25.56 0.44,9.73 0.68,19.77 0.87,30.05 0.19,10.29 0.19,20.39 0,30.3 -0.19,9.91 -0.31,18.77 -0.5,26.56 5.67,-0.5 12.53,-0.81 20.7,-0.87 8.17,-0.06 16.9,-0.06 26.19,0.12 9.29,0.19 18.83,0.56 28.56,1.25 9.73,0.68 19.02,1.5 27.81,2.49 3.31,6.3 5.43,12.66 6.24,19.08 0.81,6.42 0.56,12.59 -0.75,18.58 -1.31,5.99 -3.55,11.66 -6.61,16.96 -3.05,5.3 -6.8,9.98 -11.1,13.97 -4.3,3.99 -9.16,7.23 -14.46,9.73 -5.3,2.49 -10.91,3.93 -16.71,4.24z"/>
  <path id="_10" class="fil21" d="M3377.81 3427.47c-0.31,-5.68 -0.56,-13.34 -0.75,-22.94 -0.19,-9.67 -0.25,-20.39 -0.25,-32.11 0,-11.78 0.12,-24.07 0.37,-37.04 0.25,-12.9 0.56,-25.44 1,-37.59 0.44,-12.16 0.93,-23.5 1.5,-34.11 0.56,-10.6 1.31,-19.39 2.12,-26.37 6.98,-0.68 15.21,-1.18 24.69,-1.62 9.48,-0.44 19.64,-0.69 30.55,-0.87 10.91,-0.19 22.13,-0.25 33.79,-0.25 11.66,0 22.94,0.12 33.92,0.37 10.98,0.25 21.39,0.62 31.17,1.12 9.79,0.5 18.46,1.06 25.94,1.62 1.5,2.18 2.87,5.55 4.11,10.1 1.25,4.61 1.87,9.67 1.87,15.28 0,5.55 -0.75,11.29 -2.24,17.21 -1.5,5.92 -4.12,11.29 -7.86,16.15 -3.74,4.8 -8.92,8.73 -15.46,11.85 -6.55,3.05 -14.84,4.61 -24.81,4.61l-51.38 0 0 12.97c3.74,0 8.86,-0.12 15.34,-0.37 6.48,-0.25 13.41,-0.31 20.7,-0.25 7.3,0.06 14.65,0.44 21.95,1.12 7.3,0.68 13.65,1.81 18.95,3.49 3.68,8.29 5.74,16.21 6.23,23.69 0.5,7.48 -0.69,14.15 -3.49,19.95 -2.81,5.8 -7.23,10.54 -13.22,14.09 -5.98,3.55 -13.53,5.61 -22.69,6.11 -3.18,0.19 -6.11,0.25 -8.85,0.25 -2.75,0 -5.67,0 -8.86,0 -3.18,0 -6.79,-0.06 -10.85,-0.12 -4.05,-0.06 -9.04,-0.12 -14.84,-0.12l0 15.34 5.74 0 80.06 0c4.68,6.67 7.67,14.03 9.1,22.2 1.43,8.17 0.81,15.96 -1.75,23.44 -2.56,7.48 -7.3,14.03 -14.22,19.7 -6.92,5.67 -16.27,9.23 -28.06,10.72 -3.49,0.5 -8.04,0.93 -13.71,1.25 -5.67,0.31 -11.78,0.56 -18.46,0.75 -6.67,0.19 -13.53,0.19 -20.7,0.12 -7.17,-0.06 -14.03,-0.19 -20.58,-0.37 -6.61,-0.19 -12.53,-0.5 -17.89,-1 -5.3,-0.5 -9.48,-1.06 -12.47,-1.75 -11.85,-2.99 -20.51,-8.92 -26,-17.83 -5.48,-8.92 -8.73,-21.82 -9.73,-38.78z"/>
  <path id="_11" class="fil21" d="M3756.01 3344.54c10.47,6.48 18.64,13.9 24.56,22.32 5.92,8.42 9.85,17.14 11.85,26.19 2,9.04 2.25,18.14 0.75,27.18 -1.5,9.04 -4.3,17.58 -8.48,25.56 -4.18,7.98 -9.42,15.02 -15.84,21.2 -6.42,6.17 -13.53,10.78 -21.32,13.97 -5.49,2.18 -12.1,4.11 -19.83,5.86 -7.73,1.75 -16.09,2.99 -25.06,3.74 -8.98,0.75 -18.39,0.93 -28.18,0.5 -9.79,-0.44 -19.52,-1.62 -29.18,-3.62 -9.66,-2 -19.01,-4.93 -28.06,-8.86 -9.04,-3.93 -17.33,-8.91 -24.81,-15.09 -3.99,-4.99 -6.61,-10.48 -7.86,-16.46 -1.24,-5.99 -1.37,-11.79 -0.37,-17.46 1,-5.67 3.05,-10.91 6.11,-15.71 3.05,-4.8 6.92,-8.67 11.59,-11.6 4.68,-2.93 9.91,-4.49 15.84,-4.74 5.92,-0.25 12.28,1.31 19.08,4.61 8.79,4.3 16.9,7.73 24.32,10.23 7.42,2.49 13.9,3.93 19.58,4.36 5.67,0.44 10.23,-0.19 13.72,-1.75 3.49,-1.56 5.74,-4.3 6.73,-8.11 0.69,-2.49 1.06,-4.55 1.25,-6.23 0.19,-1.68 -0.25,-3.05 -1.25,-4.12 -1,-1.06 -2.8,-1.93 -5.36,-2.49 -2.56,-0.56 -6.17,-1.06 -10.85,-1.37 -10.16,-0.68 -20.26,-2.68 -30.3,-5.98 -10.04,-3.31 -19.33,-7.98 -27.81,-13.97 -8.48,-5.98 -15.71,-13.34 -21.7,-22.07 -5.99,-8.73 -9.98,-19.02 -11.97,-30.8 -0.5,-3.49 -0.62,-7.67 -0.37,-12.59 0.25,-4.93 1.12,-10.1 2.62,-15.59 1.5,-5.49 3.74,-11.04 6.74,-16.71 2.99,-5.67 6.98,-11.1 11.97,-16.34 4.99,-5.24 11.1,-10.04 18.33,-14.34 7.23,-4.3 15.84,-7.79 25.81,-10.47 8.17,-2.18 16.96,-3.55 26.44,-4.24 9.48,-0.69 18.77,-0.56 27.81,0.25 9.04,0.81 17.65,2.43 25.69,4.74 8.04,2.31 14.78,5.24 20.08,8.73 7.29,4.8 12.84,9.91 16.58,15.34 3.74,5.43 6.11,10.79 7.11,16.21 1,5.42 0.81,10.66 -0.62,15.84 -1.43,5.18 -3.62,9.79 -6.61,13.97 -2.99,4.18 -6.61,7.67 -10.85,10.6 -4.24,2.93 -8.79,4.92 -13.59,6.11 -2.99,-3.68 -6.92,-6.8 -11.85,-9.48 -4.92,-2.68 -10.16,-4.74 -15.71,-6.23 -5.55,-1.5 -11.16,-2.37 -16.83,-2.62 -5.67,-0.25 -10.79,0.12 -15.34,1.12 -4.55,1 -8.29,2.68 -11.22,4.99 -2.93,2.31 -4.36,5.3 -4.36,8.98 0,2.8 1.18,5.05 3.49,6.73 2.31,1.68 6.67,2.93 12.97,3.74 18.27,2.31 32.48,4.86 42.65,7.61 10.16,2.75 17.46,5.55 21.95,8.35z"/>
  <path id="_12" class="fil21" d="M2003.39 3344.79l0 -93.27c4.99,-6.17 10.72,-10.79 17.21,-13.84 6.48,-3.05 13.03,-4.8 19.64,-5.24 6.67,-0.44 13.15,0.37 19.58,2.37 6.36,1.99 12.03,4.92 17.02,8.85 4.99,3.93 9.04,8.73 12.1,14.46 3.05,5.74 4.61,12.1 4.61,19.08 0,5.18 0.06,12.35 0.12,21.57 0.06,9.23 0.19,19.7 0.25,31.42 0.06,11.72 0.19,24.13 0.25,37.28 0.06,13.16 0.06,26.13 0,38.91 -0.06,12.78 -0.31,25 -0.62,36.54 -0.31,11.54 -0.81,21.51 -1.5,29.8 -5.3,5.3 -12.41,9.48 -21.32,12.47 -8.91,2.99 -18.33,4.18 -28.31,3.49 -9.98,-0.69 -19.95,-3.43 -29.93,-8.36 -9.98,-4.92 -18.77,-12.59 -26.44,-23.07 -3.49,-4.8 -7.11,-10.29 -10.85,-16.46 -3.74,-6.17 -7.3,-12.22 -10.72,-18.21 -3.43,-5.98 -6.42,-11.41 -9.1,-16.21 -2.68,-4.8 -4.74,-8.42 -6.23,-10.72 -0.31,-0.81 -0.81,-1.56 -1.37,-2.12 -0.56,-0.56 -1.12,-1.31 -1.62,-2.12 -0.37,0 -0.68,0.06 -0.93,0.13 -0.25,0.06 -0.56,0.12 -0.93,0.12 0.19,7.48 0.44,14.28 0.75,20.45 0.31,6.17 0.63,12.35 0.88,18.58 0.25,6.23 0.44,12.78 0.62,19.58 0.19,6.8 0.19,14.71 0,23.69 -6.8,5.67 -13.78,9.66 -20.82,11.97 -7.04,2.31 -13.9,3.43 -20.57,3.37 -6.67,-0.06 -12.91,-1.25 -18.83,-3.49 -5.92,-2.24 -11.03,-5.18 -15.46,-8.85 -4.43,-3.68 -7.92,-7.79 -10.6,-12.47 -2.68,-4.68 -4.05,-9.48 -4.24,-14.46 -0.31,-10.29 -0.62,-21.7 -0.87,-34.17 -0.25,-12.47 -0.44,-25.32 -0.62,-38.53 -0.19,-13.22 -0.25,-26.37 -0.25,-39.53 0,-13.15 0.06,-25.38 0.13,-36.79 0.06,-11.41 0.31,-21.51 0.62,-30.43 0.31,-8.91 0.81,-15.84 1.37,-20.82 5.99,-4.99 13.41,-9.04 22.2,-12.1 8.79,-3.05 17.9,-4.43 27.31,-3.99 9.42,0.44 18.52,2.93 27.31,7.48 8.79,4.55 16.21,11.85 22.2,21.82 4.3,7.29 8.17,13.9 11.6,19.82 3.43,5.92 6.74,11.78 9.98,17.58 3.24,5.8 6.61,11.85 10.1,18.08 3.49,6.24 7.48,13.34 11.97,21.33 0.5,1 1.06,1.93 1.62,2.87 0.56,0.93 1.12,1.81 1.62,2.62 0.19,-0.19 0.37,-0.25 0.56,-0.25 0.19,0 0.37,-0.06 0.56,-0.25z"/>
  <path class="fil22" d="M1251.13 3749.46l40.16 0c9.76,0 17.54,2.49 23.32,7.47 5.79,4.98 8.68,11.65 8.68,20 0,5.74 -1.43,10.67 -4.3,14.79 -2.87,4.13 -6.87,7.1 -12,8.91 6.14,1.81 10.89,4.96 14.26,9.44 3.37,4.48 5.06,9.89 5.06,16.23 0,8.86 -2.99,15.87 -8.98,21.06 -5.99,5.18 -14.11,7.77 -24.38,7.77l-41.82 0 0 -105.67zm41.51 97.07c7.65,0 13.61,-1.81 17.89,-5.43 4.28,-3.62 6.42,-8.66 6.42,-15.1 0,-6.54 -2.16,-11.6 -6.49,-15.17 -4.33,-3.57 -10.42,-5.36 -18.27,-5.36l-31.85 0 0 41.06 32.3 0zm-1.66 -49.51c7.25,0 12.88,-1.71 16.91,-5.13 4.03,-3.42 6.04,-8.2 6.04,-14.34 0,-6.04 -2.01,-10.79 -6.04,-14.26 -4.02,-3.47 -9.61,-5.21 -16.76,-5.21l-30.79 0 0 38.95 30.64 0z"/>
  <path id="_1_1" class="fil22" d="M1390.92 3856.94c-12.38,0 -22.11,-3.85 -29.21,-11.55 -7.1,-7.7 -10.64,-18.34 -10.64,-31.93l0 -64.01 9.06 0 0 63.55c0,11.27 2.67,19.93 8,25.96 5.34,6.04 12.93,9.06 22.8,9.06 9.86,0 17.46,-3.02 22.8,-9.06 5.33,-6.04 8,-14.69 8,-25.96l0 -63.55 9.06 0 0 64.01c0,13.59 -3.55,24.23 -10.64,31.93 -7.1,7.7 -16.83,11.55 -29.21,11.55z"/>
  <path id="_2_2" class="fil22" d="M1463.53 3749.46l40.16 0c9.76,0 17.54,2.49 23.32,7.47 5.79,4.98 8.68,11.65 8.68,20 0,5.74 -1.43,10.67 -4.3,14.79 -2.87,4.13 -6.87,7.1 -12,8.91 6.14,1.81 10.89,4.96 14.26,9.44 3.37,4.48 5.06,9.89 5.06,16.23 0,8.86 -2.99,15.87 -8.98,21.06 -5.99,5.18 -14.11,7.77 -24.38,7.77l-41.82 0 0 -105.67zm41.51 97.07c7.65,0 13.61,-1.81 17.89,-5.43 4.28,-3.62 6.42,-8.66 6.42,-15.1 0,-6.54 -2.16,-11.6 -6.49,-15.17 -4.33,-3.57 -10.42,-5.36 -18.27,-5.36l-31.85 0 0 41.06 32.3 0zm-1.66 -49.51c7.25,0 12.88,-1.71 16.91,-5.13 4.03,-3.42 6.04,-8.2 6.04,-14.34 0,-6.04 -2.01,-10.79 -6.04,-14.26 -4.02,-3.47 -9.61,-5.21 -16.76,-5.21l-30.79 0 0 38.95 30.64 0z"/>
  <path id="_3_3" class="fil22" d="M1565.58 3749.46l40.16 0c9.76,0 17.54,2.49 23.32,7.47 5.79,4.98 8.68,11.65 8.68,20 0,5.74 -1.43,10.67 -4.3,14.79 -2.87,4.13 -6.87,7.1 -12,8.91 6.14,1.81 10.89,4.96 14.26,9.44 3.37,4.48 5.06,9.89 5.06,16.23 0,8.86 -2.99,15.87 -8.98,21.06 -5.99,5.18 -14.11,7.77 -24.38,7.77l-41.82 0 0 -105.67zm41.51 97.07c7.65,0 13.61,-1.81 17.89,-5.43 4.28,-3.62 6.42,-8.66 6.42,-15.1 0,-6.54 -2.16,-11.6 -6.49,-15.17 -4.33,-3.57 -10.42,-5.36 -18.27,-5.36l-31.85 0 0 41.06 32.3 0zm-1.66 -49.51c7.25,0 12.88,-1.71 16.91,-5.13 4.03,-3.42 6.04,-8.2 6.04,-14.34 0,-6.04 -2.01,-10.79 -6.04,-14.26 -4.02,-3.47 -9.61,-5.21 -16.76,-5.21l-30.79 0 0 38.95 30.64 0z"/>
  <polygon id="_4_4" class="fil22" points="1667.62,3749.46 1676.83,3749.46 1676.83,3846.38 1730.42,3846.38 1730.42,3855.13 1667.62,3855.13 "/>
  <polygon id="_5_5" class="fil22" points="1752.61,3749.46 1814.81,3749.46 1814.81,3758.07 1761.82,3758.07 1761.82,3797.02 1810.88,3797.02 1810.88,3805.47 1761.82,3805.47 1761.82,3846.53 1816.47,3846.53 1816.47,3855.13 1752.61,3855.13 "/>
  <polygon id="_6_6" class="fil22" points="1902.06,3758.22 1865.68,3758.22 1865.68,3749.46 1947.65,3749.46 1947.65,3758.22 1911.12,3758.22 1911.12,3855.13 1902.06,3855.13 "/>
  <polygon id="_7_7" class="fil22" points="1970.45,3749.46 2032.64,3749.46 2032.64,3758.07 1979.66,3758.07 1979.66,3797.02 2028.72,3797.02 2028.72,3805.47 1979.66,3805.47 1979.66,3846.53 2034.3,3846.53 2034.3,3855.13 1970.45,3855.13 "/>
  <path id="_8_8" class="fil22" d="M2092.42 3749.46l8.75 0 43.78 105.67 -9.66 0 -11.02 -26.57 -54.95 0 -10.87 26.57 -9.81 0 43.78 -105.67zm28.38 70.65l-24 -58.12 -23.85 58.12 47.85 0z"/>
  <path id="_9_9" class="fil22" d="M2229.34 3857.1c-10.77,0 -19.24,-2.47 -25.44,-7.4 -6.19,-4.93 -9.28,-11.67 -9.28,-20.23 0,-12.88 7.75,-22.85 23.25,-29.89 -4.93,-5.43 -8.6,-10.34 -11.02,-14.72 -2.42,-4.38 -3.62,-8.83 -3.62,-13.36 0,-7.15 2.72,-12.93 8.15,-17.36 5.43,-4.43 12.53,-6.64 21.29,-6.64 5.84,0 11,1.03 15.47,3.09 4.48,2.06 7.95,4.98 10.42,8.76 2.46,3.77 3.7,8.08 3.7,12.91 0,6.54 -2.39,12.28 -7.17,17.21 -4.78,4.93 -12.2,9.31 -22.27,13.13l28.53 29.29c4.33,-7.35 6.54,-16.65 6.64,-27.93l8.75 0c-0.2,14.19 -3.22,25.66 -9.06,34.42l16.45 16.76 -11.78 0 -9.96 -10.27c-8.15,8.15 -19.17,12.23 -33.06,12.23zm-25.96 -27.78c0,6.04 2.34,10.77 7.02,14.19 4.68,3.42 11.05,5.13 19.1,5.13 11.27,0 20.13,-3.32 26.57,-9.96l-32 -32.76c-13.79,5.74 -20.68,13.53 -20.68,23.4zm8.45 -57.82c0,3.32 1.13,6.87 3.4,10.64 2.26,3.77 6.06,8.48 11.39,14.11 9.66,-3.73 16.58,-7.42 20.76,-11.1 4.18,-3.67 6.26,-7.98 6.26,-12.91 0,-5.03 -1.89,-9.06 -5.66,-12.08 -3.78,-3.02 -8.88,-4.53 -15.32,-4.53 -6.34,0 -11.4,1.44 -15.17,4.3 -3.78,2.87 -5.66,6.72 -5.66,11.55z"/>
  <polygon id="_10_10" class="fil22" points="2343.92,3749.46 2402.19,3749.46 2402.19,3758.07 2353.13,3758.07 2353.13,3799.58 2398.26,3799.58 2398.26,3808.03 2353.13,3808.03 2353.13,3855.13 2343.92,3855.13 "/>
  <path id="_11_11" class="fil22" d="M2428.45 3749.46l39.1 0c7.04,0 13.21,1.36 18.49,4.08 5.28,2.72 9.38,6.54 12.3,11.47 2.92,4.93 4.38,10.72 4.38,17.36 0,8.66 -2.41,15.85 -7.24,21.59 -4.83,5.74 -11.42,9.31 -19.77,10.72l28.68 40.46 -11.02 0 -28.38 -39.7 -27.32 0 0 39.7 -9.21 0 0 -105.67zm38.19 57.21c8.35,0 14.89,-2.17 19.63,-6.49 4.73,-4.33 7.09,-10.27 7.09,-17.81 0,-7.45 -2.37,-13.33 -7.09,-17.66 -4.73,-4.33 -11.27,-6.49 -19.63,-6.49l-28.98 0 0 48.46 28.98 0z"/>
  <path id="_12_12" class="fil22" d="M2568.85 3856.94c-12.38,0 -22.11,-3.85 -29.21,-11.55 -7.1,-7.7 -10.64,-18.34 -10.64,-31.93l0 -64.01 9.06 0 0 63.55c0,11.27 2.67,19.93 8,25.96 5.34,6.04 12.93,9.06 22.8,9.06 9.86,0 17.46,-3.02 22.8,-9.06 5.33,-6.04 8,-14.69 8,-25.96l0 -63.55 9.06 0 0 64.01c0,13.59 -3.55,24.23 -10.64,31.93 -7.1,7.7 -16.83,11.55 -29.21,11.55z"/>
  <polygon id="_13" class="fil22" points="2641.46,3749.46 2650.67,3749.46 2650.67,3855.13 2641.46,3855.13 "/>
  <polygon id="_14" class="fil22" points="2709.84,3758.22 2673.46,3758.22 2673.46,3749.46 2755.43,3749.46 2755.43,3758.22 2718.9,3758.22 2718.9,3855.13 2709.84,3855.13 "/>
  <polygon id="_15" class="fil22" points="2827.74,3758.22 2791.36,3758.22 2791.36,3749.46 2873.33,3749.46 2873.33,3758.22 2836.8,3758.22 2836.8,3855.13 2827.74,3855.13 "/>
  <polygon id="_16" class="fil22" points="2896.12,3749.46 2958.32,3749.46 2958.32,3758.07 2905.33,3758.07 2905.33,3797.02 2954.39,3797.02 2954.39,3805.47 2905.33,3805.47 2905.33,3846.53 2959.98,3846.53 2959.98,3855.13 2896.12,3855.13 "/>
  <path id="_17" class="fil22" d="M3018.1 3749.46l8.75 0 43.78 105.67 -9.66 0 -11.02 -26.57 -54.95 0 -10.87 26.57 -9.81 0 43.78 -105.67zm28.38 70.65l-24 -58.12 -23.85 58.12 47.85 0z"/>
  <g id="_2067433207408">
   <path class="fil0" d="M2220.31 649.62c0,0 -24.66,17.34 -27.03,41.07 -2.38,23.74 -3.17,159.06 -3.17,159.06 0,0 -16.43,8.21 -16.43,19.16 0,10.95 9.24,25.32 9.24,25.32 0,0 -6.16,4.11 -8.21,13.34 -2.06,9.24 2.05,21.22 2.05,21.22 0,0 -45.71,7.83 -50.51,35.21 -4.79,27.37 34.13,121.02 34.13,121.02 0,0 -10.86,4.53 -14.48,12.67 -3.62,8.15 -3.17,24.44 -3.17,24.44 0,0 -12.32,13.43 -13.23,19.32 -0.91,5.88 -2.71,24 -2.71,24 0,0 -63.84,5.89 -78.33,28.98 -14.49,23.09 13.06,124.07 13.06,124.07 0,0 -29.3,11.88 -26.93,33.26 2.38,21.38 27.72,113.25 27.72,113.25 0,0 -25.35,15.05 -26.93,30.89 -1.58,15.84 32.32,121.68 32.32,121.68 0,0 -11.64,5.75 -28.17,18.83 -16.53,13.08 14.46,123.98 22.04,145.33 7.58,21.35 -5.64,14.51 -20.75,24.41 -15.11,9.9 30.36,139.49 30.36,139.49 0,0 -22.57,6.79 -28.48,13.48 -5.91,6.7 34.35,123.6 29.8,135.44 -4.56,11.85 -18.22,8.2 -23.69,18.22 -5.47,10.02 34.62,110.25 23.69,133.93 -10.93,23.69 -27.43,21.76 -38.39,26.55 -10.96,4.8 11.03,69.06 24.81,99.02 13.78,29.96 25.77,40.14 19.77,50.33 -5.99,10.19 -22.98,20.4 -32.49,71.12 -9.51,50.72 -47.05,383.93 -47.05,426.12 0,42.18 -1.97,58.44 5.28,64.79 7.25,6.34 28.55,4.98 62.53,17.22 33.98,12.24 145.52,90.12 145.52,90.12 0,0 56.64,-48.94 94.71,-65.71 38.07,-16.77 120.54,-37.61 127.34,-37.61 6.8,0 -44.38,-494.37 -50.72,-530.83 -6.34,-36.47 -24.57,-35.67 -24.57,-35.67 0,0 37.82,-116.02 34.65,-140.6 -3.17,-24.57 -17.44,-22.99 -31.71,-25.37 -14.27,-2.38 54.18,-128.09 41.78,-140.5 -12.41,-12.41 -34.47,-11.03 -34.47,-11.03l37.47 -137.53c0,0 -15.06,-13.48 -34.09,-14.27 -19.03,-0.79 41.72,-125.59 43.81,-140.19 2.09,-14.59 -42.75,-11.47 -42.75,-16.68 0,-5.21 39.73,-107.98 38.52,-125.97 -1.2,-17.99 -32.98,-23.98 -35.38,-27.58 -2.4,-3.6 29.75,-114.21 32.51,-125.93 2.76,-11.72 -41.37,-22.07 -41.37,-22.07 0,0 32.07,-119.96 36.15,-143.08 4.08,-23.13 -29.93,-17.23 -28.12,-21.77 1.82,-4.53 21.16,-102.89 25.99,-120.82 4.83,-17.93 -90.13,-34.07 -91.31,-36.62 -1.18,-2.55 1.57,-20.39 0.98,-22.94 -0.59,-2.55 -10.19,-3.14 -10.39,-5.3 -0.2,-2.16 -0.69,-10.5 -4.79,-10.84 -4.09,-0.34 -4.09,-0.34 -4.09,-0.34 0,0 4.09,-21.29 -0.42,-28.29 -4.51,-6.99 -16.02,-11.28 -16.02,-11.28 0,0 23.35,-72.06 23.96,-112.89 0.6,-40.83 -42.63,-51.04 -42.63,-51.04 0,0 6.14,-30.74 -5.38,-37.97 0,0 11.71,-16.53 11.02,-22.68 -0.68,-6.15 -7.34,-9.22 -9.9,-13.66 -2.56,-4.44 -7.4,-66.61 -7.92,-76.54 -0.52,-9.92 32.91,-123.29 -25.06,-128.78z"/>
   <g>
    <path class="fil23" d="M2092.53 2420.84c-57.86,-159.17 -63.76,-157.63 88.79,-149.31 0.06,0.01 8.21,0.17 4.18,1.65 6.67,-3.79 -77.07,11.83 -106.78,16.7 0.48,47.34 4.9,83.01 13.81,130.96zm-17.7 -130.33c-1.22,0.19 -2.29,0.35 -3.18,0.48 1.32,-0.01 2.32,-0.16 3.18,-0.48z"/>
   </g>
   <path class="fil1" d="M2092.53 2420.84c-4.58,-10.12 -34.71,-140.02 -20.51,-139.45 19.39,0.76 126.02,-13.4 113.48,-8.2"/>
   <g>
    <path class="fil23" d="M2089.79 2263.61c-20.73,-182.43 -72.99,-132.59 105.28,-146.29 -71.64,18.05 -38.68,11.68 -106.82,21.07 1.79,39.11 3.62,88.77 1.54,125.22zm-7.11 -124.45l-2.47 0.34c0.98,-0.07 1.79,-0.18 2.47,-0.34z"/>
   </g>
   <path class="fil1" d="M2089.79 2263.61c5.26,-16.85 -20.19,-133.99 -9.57,-133.99 24.31,0 96.75,-4.66 114.85,-12.31"/>
   <g>
    <path class="fil23" d="M2091.15 2110.48c-28.65,-158.63 -68.8,-156.34 98.25,-142.98 0.69,0.06 3.46,-0.09 4.68,0.71l0.04 0.75c-1.03,0.79 -6.52,0.66 -7.26,0.69 0.07,-0.01 1.05,-0.19 2.24,-0.43 -28.61,1.24 -70.24,9.58 -105.16,12.65 3.25,32.42 6.74,100.28 7.22,128.61zm-12.57 -128.18l-1.21 0.09c0.43,-0.01 0.83,-0.04 1.21,-0.09z"/>
   </g>
   <path class="fil1" d="M2091.16 2110.48c3.89,-18.09 -30.47,-138.09 -13.79,-138.09 40.11,0 39.1,2.44 82.15,-2.85 0.94,-0.12 52.27,-2.56 27.35,0.12"/>
   <g>
    <path class="fil23" d="M2090.42 1943.02c-39.51,-155.69 -57.63,-135.75 95.91,-144.65 -42.4,10.09 -62,21.75 -104.35,26 3.31,35.22 5.81,82.73 8.44,118.65zm-11.08 -118.4c-1.7,0.15 -3.43,0.3 -5.2,0.43 1.66,0.92 3.58,0.53 5.2,-0.43z"/>
   </g>
   <path class="fil1" d="M2090.42 1943.02c0,-21.64 -33.29,-135.49 -12.58,-126.95 13.35,5.5 98.34,-19.38 108.49,-17.7"/>
   <g>
    <path class="fil23" d="M2085.84 1784.49c-7.89,-15.31 -45.23,-125.14 -25.65,-131.43 24.77,-7.97 103.14,-16.4 130.85,-19.78 -80.14,23.56 -43.08,11.59 -117.65,37.78 -0.34,21.04 9.18,96.82 12.44,113.43z"/>
   </g>
   <path class="fil1" d="M2087.27 1785.79c-1.31,18.93 -20.6,-96.74 -20.84,-97.08 -1.76,-2.47 -4.86,-19.44 -2.74,-25.56 50.44,-17.46 81.5,-18.08 127.36,-29.87"/>
   <g>
    <path class="fil23" d="M2090.42 1631.7c-40.37,-169.28 -65.87,-129.69 95.91,-146.22 -69.89,19.88 -37.38,11.91 -103.79,25.79 1.58,14.62 7.55,114.71 7.88,120.44zm-10.87 -119.81l-3.28 0.69c1.43,-0.1 2.43,-0.28 3.28,-0.69z"/>
   </g>
   <path class="fil1" d="M2090.42 1631.7c0,-23.89 -30.05,-128.93 -14.15,-128.93 15.8,0 96.51,-12.61 110.06,-17.3"/>
   <g>
    <path class="fil23" d="M2090.19 1479.91c-52.63,-177.46 -54.69,-126.66 102.54,-168.17 -69.06,31.08 -33.43,15.95 -113.15,46.94 -0.65,28.12 8.15,101.4 10.62,121.23zm-10.48 -124.52c0.32,-0.79 0.43,-1.65 0.21,-2.57 -0.09,0.78 -0.15,1.64 -0.21,2.57z"/>
   </g>
   <path class="fil1" d="M2090.18 1479.91c-3.97,-12.73 -23.51,-128.05 -20.63,-128.64 36.53,-7.45 121.53,-38.98 123.17,-39.53"/>
   <g>
    <path class="fil23" d="M2084.76 1332.51c-38.6,-145.33 -59.11,-136.86 106.34,-164.6 2.39,-0.4 5.92,-0.05 8.47,0.27l-0.01 0.01 0.01 0c-12.84,0.48 -98.56,38.7 -122.78,48.01 0.31,-0.25 0.58,-0.42 0.64,-0.83 -9.91,4.05 6.35,107.03 7.34,117.15z"/>
   </g>
   <path class="fil1" d="M2084.76 1332.5c0,-21.68 -34.22,-118.29 -11.56,-126.37 27.87,-9.94 72.5,-18.79 118.15,-37.61 1.48,-0.61 8.73,-0.35 8.2,-0.35"/>
   <g>
    <path class="fil23" d="M2248.91 1164.8c167.32,46.16 139.39,7.11 114.72,175.64 -1.62,-80.9 -0.5,-41.45 -3.55,-122.63 -15.64,-10.86 -100.79,-48.2 -111.17,-53.02z"/>
   </g>
   <path class="fil1" d="M2248.91 1164.8c14.2,6.43 121.56,40.59 121.56,48.49 0,12.1 -5.96,125.41 -6.84,127.15"/>
   <g>
    <path class="fil23" d="M2262.46 1328.15c121.9,22.99 150.81,-22.94 93.46,157.81 -1.31,4.13 -3.01,6.91 -4.31,8.81 5.48,-20.67 6.92,-114.69 9.42,-136.41 -61.77,-14.88 -31.81,-5.96 -98.57,-30.21zm89.15 166.62c-1.5,2.19 -2.45,3.2 -1.64,3.74 0.59,-0.53 1.13,-1.81 1.64,-3.74zm-1.64 3.74c0.41,0.27 1.26,0.42 2.73,0.54 0,0 -3.21,0.26 -3.21,0.26l0.01 -0.52c0.16,-0.03 0.32,-0.14 0.47,-0.28z"/>
   </g>
   <path class="fil1" d="M2262.46 1328.15c50.48,14.1 54.41,16.76 108.01,23.36 4.19,0.52 -13.65,147.98 -20.98,147.55l3.2 0"/>
   <g>
    <path class="fil23" d="M2258.35 1485.37c86.21,12.65 44.29,3.27 125.87,27.73 -2.99,23.37 -22.51,119.87 -28.88,138.9 0.63,0.07 1.22,0.16 1.46,0.18l-1.57 0.13c-1.3,3.78 -2.02,4.18 -1.9,-0.13 0,-0.11 0.1,-0.17 0.27,-0.21l0 -0.04c10.15,-1.55 10.25,-129.07 11.31,-139.58 -65.26,-10.44 -29.48,-2.52 -106.57,-26.97z"/>
   </g>
   <path class="fil1" d="M2258.35 1485.38c16.27,5.07 116.3,25.28 116.22,27.35 -0.63,15.93 -6.84,45.46 -6.84,71.1 0,9.63 -5.72,68.87 -14.14,68.36l3.2 0"/>
   <g>
    <path class="fil23" d="M2258.71 1638.69c140.84,12.97 144.25,2.74 104.69,151.36 -0.8,2.99 -4.81,19.09 -8.98,20.92 8.74,-5.65 8.96,-113.65 9.33,-138.08 -17.95,-10.16 -93.7,-31.25 -105.04,-34.2zm107.02 35.43c0.31,0.34 0.68,0.65 1.11,0.92 -0.29,-0.29 -0.66,-0.59 -1.11,-0.92z"/>
   </g>
   <path class="fil1" d="M2258.71 1638.69c7.6,0 114.85,22.91 114.85,30.08 0,17.11 -9.26,138.77 -19.14,142.2"/>
   <g>
    <path class="fil23" d="M2255.98 1806.87c143.21,5.37 164.6,-44.74 90.25,153.13 4.37,-21.59 16.3,-118.98 20.4,-136.11 -16.91,-2.81 -96.98,-14.29 -110.65,-17.01zm113.44 17.52c0.1,0.04 0.21,0.07 0.32,0.08l-0.32 -0.08z"/>
   </g>
   <path class="fil1" d="M2255.98 1806.86c31,8.4 70,5.39 103.91,6.84 27.9,1.19 15.37,7.77 9.69,42.5 -3.06,18.68 -13.62,92.05 -23.36,103.8"/>
   <g>
    <path class="fil23" d="M2249.26 1957.47c84.23,-1.17 41.55,-4.91 127.91,12.45 -15.34,99.26 -6.05,49.33 -28.1,149.75 6.06,-102.64 2.83,-51.47 9.67,-153.51 -69.21,0.12 -32.67,2.41 -109.49,-8.7z"/>
   </g>
   <path class="fil1" d="M2249.27 1957.48c4.9,-3.06 118.8,10.11 118.71,10.58 -8.22,40.32 -7.48,108.98 -18.9,151.62"/>
   <g>
    <path class="fil23" d="M2253.42 2119.68c141.99,-2.45 145.06,-40.46 83.19,155.95 27.19,-190.09 45.71,-137.1 -83.19,-155.95z"/>
   </g>
   <path class="fil1" d="M2253.42 2119.68c23.86,-0.75 17.61,8.18 68.63,1.9 39.43,-4.85 47.15,1.13 39.69,37.79 -7.97,39.09 -15.42,77.29 -25.13,116.27"/>
   <g>
    <path class="fil23" d="M2259.67 2277.71c0.55,-8.04 109.41,-23.81 114.89,-0.19 9.31,40.11 -12.92,109.56 -27.56,147.83 11.07,-54.96 9.93,-87.19 9.89,-141.58 -15.58,-7.27 -95.19,-14.53 -97.22,-6.06zm98.4 6.69c0.26,0.31 0.58,0.57 1,0.77 -0.24,-0.26 -0.58,-0.52 -1,-0.77z"/>
   </g>
   <path class="fil1" d="M2259.66 2277.71c0.64,-9.32 103.15,-9.2 106.05,2.08 5.85,22.73 -8.11,124.74 -18.71,145.56"/>
   <g>
    <path class="fil23" d="M2215.69 929.02c-6.58,1.76 -55.91,15.62 -55.43,24.78l0.06 0.02c0.19,-0.18 0.08,-0.16 0.34,-0.25 4.88,3.89 18.44,136.39 20.44,162.56l-5.33 -20.13c-33.01,-96.96 -66.5,-158.59 39.92,-166.98z"/>
   </g>
   <path class="fil1" d="M2215.69 929.01c-10.99,1.06 -71.56,12.69 -60.15,28.71 0.46,0.64 9.01,101.24 15.72,117.52 3.57,8.65 10.14,31.79 9.84,40.88"/>
   <g>
    <path class="fil23" d="M2228.27 935.31c121.08,-12.22 29.29,176.95 28.31,177.68 2.62,-4.83 3.52,-30.84 3.73,-32.95 9.59,-94.38 41.51,-137.65 -32.04,-144.72z"/>
   </g>
   <path class="fil1" d="M2228.27 935.3c30.19,-0.94 53.33,4.13 51.89,37.74 -1.85,43.17 -23.69,141.28 -23.59,139.94"/>
   <g>
    <path class="fil23" d="M2215.69 892.85c18.23,113.75 13.83,110.53 1.21,221.95 -8.3,-103.89 -4.56,-122.56 -1.21,-221.95z"/>
   </g>
   <path class="fil1" d="M2215.69 892.85c5.43,18.87 1.42,202.01 1.21,221.96"/>
   <g>
    <path class="fil23" d="M2202.62 2428.11c-141.23,-11.19 -118,-1.43 -130.56,112.03 -4.46,40.27 -49.84,411.43 -40.12,428.39 38.12,9.14 41.13,9.98 81.04,11.55 -32.06,0.59 -50.83,0.43 -82.39,-6.96 -29.65,-6.94 22.76,-400.56 28.56,-434.76 19.67,-115.96 0.28,-129.95 143.46,-110.24z"/>
   </g>
   <path class="fil1" d="M2202.62 2428.11c-16.45,-5.13 -114.55,-4.89 -119.51,9.44 -15.56,44.92 -71.99,529.15 -52.03,533.21 41.34,8.42 36.9,9.3 81.91,9.3"/>
   <g>
    <path class="fil23" d="M2232.49 2424.97c144.42,20.53 130.32,-95.41 161.52,298.92 4.56,57.64 12.11,173.31 13.03,245.17 -6.28,-80.51 -20.07,-164.57 -28.9,-243.65 -44.39,-397.77 14.81,-266.93 -145.66,-300.44z"/>
   </g>
   <path class="fil1" d="M2232.5 2424.97c55.65,17.35 118.74,-32.88 127.24,36.17 4.4,35.7 50.08,497.68 47.31,507.92"/>
   <g>
    <path class="fil23" d="M2205.77 2443.83c25.53,234.25 15.73,377.77 6.29,608.56 -6.04,-204.1 1.3,-409.43 -6.29,-608.56z"/>
   </g>
   <path class="fil1" d="M2205.77 2443.83c16.23,167.72 6.29,432.42 6.29,608.56"/>
   <g>
    <path class="fil23" d="M2029.64 2945.47c5.82,32.04 81.97,2.33 163.54,86.49 -46.21,-30.08 -164.93,-55.11 -163.54,-86.49z"/>
   </g>
   <path class="fil1" d="M2029.65 2945.47c0,22.89 48.19,27.47 67.48,34.46 45.39,16.44 61.54,20.46 96.06,52.03"/>
   <g>
    <path class="fil23" d="M2245.08 3022.52c95.35,-58.78 84.41,-44.87 191.85,-56.61 -67.91,22.61 -129.58,34.55 -191.85,56.61z"/>
   </g>
   <path class="fil1" d="M2245.08 3022.52c57.06,-35.79 128.31,-40.37 191.85,-56.61"/>
   <g>
    <path class="fil23" d="M2028.07 2929.74c-30.79,-19.06 92.6,10.68 126.45,25.71l33.94 16.76c-12.19,-2.71 -163.23,-46.7 -163.55,-46.6l0 -0.03c-0.85,0.21 3.09,4.1 3.16,4.17z"/>
   </g>
   <path class="fil1" d="M2028.07 2929.74c-32.37,-23.2 146.73,36.38 160.4,42.46"/>
   <g>
    <path class="fil23" d="M2226.63 2978.77l-0.01 -0.01c67.79,-31.25 86.11,-47.51 166.27,-42.72 -53.2,10.02 -104.45,31.53 -166.2,43.02l-0.17 -0.24 0.1 -0.05z"/>
   </g>
   <path class="fil1" d="M2227.78 2978.49c-13.87,4.97 103.29,-35.67 129.49,-39.04 10.27,-1.32 25.73,-3.69 35.63,-3.41"/>
   <g>
    <path class="fil23" d="M2032.79 2807.09c120.47,-4.81 62.16,-14.17 174.94,27.99 -117.26,-13.94 -58.94,-4.61 -174.94,-27.99z"/>
   </g>
   <path class="fil1" d="M2032.79 2807.09c58.22,0 120.13,9.26 174.93,28"/>
   <g>
    <path class="fil23" d="M2208.55 2836.17c116.94,-41.18 56.56,-28.74 181.2,-36.94 -119.56,35.86 -59.12,23.72 -181.2,36.94z"/>
   </g>
   <path class="fil1" d="M2208.55 2836.17c35.85,-15.87 141.32,-25.95 181.2,-36.95"/>
   <g>
    <path class="fil23" d="M2213.19 1169.75c14.3,832.11 14.3,416.06 0,1248.17 -14.3,-832.11 -14.3,-416.06 0,-1248.17z"/>
   </g>
   <line class="fil1" x1="2213.19" y1="1169.75" x2="2213.19" y2= "2417.92" />
   <g>
    <path class="fil23" d="M2233.7 1173.32c14.3,834.29 14.3,417.15 0,1251.44 -14.3,-834.29 -14.3,-417.15 0,-1251.44z"/>
   </g>
   <line class="fil1" x1="2233.7" y1="1173.32" x2="2233.7" y2= "2424.76" />
   <g>
    <path class="fil23" d="M2193.77 1171.76c14.3,832.11 14.3,416.06 0,1248.17 -14.3,-832.11 -14.3,-416.06 0,-1248.17z"/>
   </g>
   <line class="fil1" x1="2193.77" y1="1171.76" x2="2193.77" y2= "2419.93" />
   <g>
    <path class="fil23" d="M2137.06 1172.41c-3.3,-33.03 -6.84,-19.13 38.07,-37.76 62.7,-26.01 54.6,-15.81 128.53,15.81 4.21,1.8 0.41,12.47 0.34,13.13l-1.27 10.98 -1.7 -20.13c-56.25,-9.8 -29.56,-4.89 -84.31,-15.51l-77.84 15.3 -1.82 18.18z"/>
   </g>
   <polyline class="fil1" points="2137.06,1172.41 2137.06,1152.58 2216.76,1128.48 2303.07,1152.58 2302.73,1174.58 "/>
   <g>
    <path class="fil23" d="M2142.72 1147.98l-0.5 -5.14c-1.83,-18.66 76.45,-38.63 78.16,-38.08 57.77,18.56 79.78,15.82 75.82,44.77l-0.96 -9.58c-52.53,-9.49 -27.8,-4.83 -78.02,-14.68l-73.23 13.48 -1.28 9.22z"/>
   </g>
   <polyline class="fil1" points="2142.73,1147.98 2142.92,1137.73 2217.34,1114.73 2296.4,1138.89 2296.2,1149.52 "/>
   <g>
    <path class="fil24" d="M2152.63 1131.31c-14.46,-39.73 38.12,-47.15 22.68,-6.44l-2.69 -7.09c-6.84,5.6 -4.01,4.29 -15.92,3.23l-4.07 10.31z"/>
   </g>
   <polyline class="fil1" points="2152.63,1131.31 2152.85,1114.86 2175.31,1108.19 2175.31,1124.86 "/>
   <g>
    <path class="fil23" d="M2287.33 1132.96l-4.07 -10.3c-11.91,1.06 -9.08,2.37 -15.91,-3.23l-2.69 7.08c-15.44,-40.69 37.12,-33.27 22.67,6.44z"/>
   </g>
   <polyline class="fil1" points="2287.33,1132.96 2287.11,1116.51 2264.66,1109.84 2264.66,1126.51 "/>
   <g>
    <path class="fil23" d="M2191.86 931.4l-3.28 -14.85c-9.92,-44.9 72.4,-45.83 62.93,1.11l-3.13 15.53 -3.96 -26.22 -23.77 -2.33c-16.38,1.15 -9.74,0.7 -25.48,1.74l-3.31 25.01z"/>
   </g>
   <polyline class="fil1" points="2191.85,931.4 2190.58,901.48 2220.76,894.06 2249.14,901.99 2248.38,933.19 "/>
   <g>
    <path class="fil23" d="M2201.71 896.64l-9.43 -8.36c-39.4,-34.94 115.6,-51.11 43.65,8.53l11.35 -18.75 -12.43 -4.63c-18.52,2.91 -9.72,2.98 -28.13,-0.17l-14.73 6.07 9.71 17.31z"/>
   </g>
   <polyline class="fil1" points="2201.71,896.63 2186.12,877.28 2205.81,864.99 2235.67,864.99 2254.16,875.67 2235.93,896.81 "/>
   <g>
    <path class="fil23" d="M2220.48 675.99c-29.56,9.69 10.7,127.57 -14.22,178.51 15.12,-0.43 12.99,-0.62 19.84,-0.16l5.66 -172.85c-2.98,-4.08 -6.18,-6.59 -11.29,-5.5zm0 0c37.4,-12.06 19.06,97.07 19.06,97.07 6.68,96.84 26.81,105.65 -33.73,101.18 -5.27,-26.76 -14.35,-191.91 14.67,-198.25z"/>
   </g>
   <path class="fil1" d="M2220.48 675.99c0,0 -7.61,1.79 -8.95,4.92 -1.34,3.13 -5.49,183.46 -5.49,183.46l29.78 0.68 -3.33 -183.78c0,0 -5.3,-7.65 -12.01,-5.28z"/>
   <g>
    <path class="fil23" d="M2213.15 692.08c7.22,-0.38 12.7,0.22 16.34,1.3l0.15 -1.11 1.16 1.26 -1.14 -0.09c8.81,2.67 6.58,8.15 -7.93,9.12l-5.64 0.37 0.05 1.49c23.86,-0.79 25.13,8.77 14.35,13.01 11.56,3.17 13.29,10.85 4.92,16.32 7.55,5.42 7.18,14.28 -0.78,19.43 5.9,5.56 1.08,13.06 -8.04,15.02l-6.27 94.03c-3.13,-46.94 -17.76,-85.3 -7.05,-100.52 -10.25,-3.36 -12.54,-11.36 -5.51,-17.13 -8.63,-5.68 -8.62,-14.7 0.85,-19.52 -8.35,-5.52 -4.62,-13.38 4.58,-15.93 -11.15,-4.66 -6.37,-12.14 8.53,-11.15l7.1 0.47 0.66 -5.05 -16.34 -1.33z"/>
   </g>
   <polyline class="fil1" points="2213.15,692.08 2230.81,692.33 2230.3,700.27 2213.15,700.27 2212.9,707.94 2230.05,707.94 2230.05,713.83 2212.9,713.83 2212.9,722.79 2230.05,722.79 2230.05,730.21 2213.67,730.21 2213.67,739.16 2228.25,739.16 2228.25,748.12 2214.69,748.12 2214.69,755.54 2228,755.54 2228,761.94 2220.32,761.94 2220.32,862.22 "/>
   <rect class="fil1 str3" x="2095.18" y="2469.58" width="92.45" height="18.07"/>
   <rect class="fil1 str3" x="2093.36" y="2504.83" width="92.45" height="18.07"/>
   <rect class="fil1 str3" x="2091.54" y="2540.08" width="92.45" height="18.07"/>
   <rect class="fil1 str3" x="2089.71" y="2575.33" width="92.45" height="18.07"/>
   <rect class="fil1 str3" x="2087.89" y="2610.59" width="92.45" height="18.07"/>
   <rect class="fil1 str3" x="2086.07" y="2645.84" width="92.45" height="18.07"/>
   <rect class="fil1 str3" x="2084.25" y="2681.09" width="92.45" height="18.07"/>
   <rect class="fil1 str3" x="2082.42" y="2716.34" width="92.45" height="18.07"/>
   <rect class="fil1 str3" x="2080.6" y="2751.59" width="92.45" height="18.07"/>
   <rect class="fil1 str4" x="2238.31" y="2473.25" width="92.45" height="18.07"/>
   <rect class="fil1 str4" x="2240.13" y="2508.5" width="92.45" height="18.07"/>
   <rect class="fil1 str4" x="2241.96" y="2543.75" width="92.45" height="18.07"/>
   <rect class="fil1 str4" x="2243.78" y="2579" width="92.45" height="18.07"/>
   <rect class="fil1 str4" x="2245.6" y="2614.25" width="92.45" height="18.07"/>
   <rect class="fil1 str4" x="2247.42" y="2649.5" width="92.45" height="18.07"/>
   <rect class="fil1 str4" x="2249.25" y="2684.76" width="92.45" height="18.07"/>
   <rect class="fil1 str4" x="2251.07" y="2720.01" width="92.45" height="18.07"/>
   <rect class="fil1 str4" x="2252.89" y="2755.26" width="92.45" height="18.07"/>
  </g>
  <g id="_2067433241392">
   <path class="fil0" d="M1736.54 3049.62c0,0 112.23,-0.37 130.41,-19.13 18.18,-18.75 30.96,-84.29 38.91,-130.31 7.95,-46.02 40.71,-254.62 49.65,-358.98 8.95,-104.35 6.88,-198.23 6.88,-198.23 0,0 13.08,-10.47 13.73,-24.2 0.66,-13.73 1.96,-41.86 1.96,-41.86 0,0 11.78,-14.39 7.2,-25.51 -4.58,-11.12 -14.39,-5.88 -32.05,-23.54 -17.66,-17.66 -28.21,-86.02 -47.5,-104.82 -19.29,-18.79 -38.57,-24.13 -38.57,-24.13l-7.4 -93.42c0,0 -6.83,-33.57 -41.53,-35.84 -34.7,-2.28 -143.93,-2.85 -155.31,-0.57 -11.38,2.28 -42.84,12.4 -44.46,50.78 -1.62,38.38 -3.58,83.92 -3.58,83.92 0,0 -52.19,23.09 -62.43,57.23 -10.24,34.14 -13.65,66.57 -25.6,76.24 -11.95,9.67 -24.69,13.13 -28.78,20.39 -4.09,7.26 -3.57,19.7 8.71,26.58 0,0 -1.5,43.59 -1.5,50.1 0,6.51 13.87,13.87 12.45,21.51 -1.41,7.64 -2.7,136.97 3.89,267.36 6.58,130.39 38.57,334.15 55.75,386.84 17.18,52.68 159.15,39.56 159.15,39.56z"/>
   <g>
    <path class="fil25" d="M1632.57 2116.37l215.43 -4.69c0.29,-10.72 0.96,-51.81 -4.37,-86 -2.88,-18.47 -16.6,-31.71 -32.54,-33.14 -48.41,-4.36 -132.88,2.29 -142.72,2.46 -9.84,0.17 -32.74,19.37 -33.35,42.59 -0.53,20.18 -2.06,66.92 -2.46,78.78z"/>
    <g style="clip-path:url(#id4)">
     <g>
      <path class="fil26" d="M1443.63 2251.62c0,0 69.13,40.8 308.35,31.02 239.23,-9.78 270.87,-42.63 270.87,-42.63l-21.5 89.2c0,0 -150.82,31.68 -253.19,31.83 -102.38,0.15 -142.49,0.23 -274.1,-17.88 -10.57,-1.46 -30.43,-91.54 -30.43,-91.54z"/>
     </g>
    </g>
    <path class="fil1 str5" d="M1939.61 2463.77c-2.78,62.75 -6.41,126.76 -14.54,189.06 -15.82,121.26 -43.91,345.07 -73.32,358.24 -29.41,13.17 -209.93,26.49 -246.89,-5.23 -36.96,-31.72 -58.31,-298.64 -66.54,-409.64 -3.07,-41.42 -4.34,-85.21 -4.8,-124.19"/>
    <g style="clip-path:url(#id5)">
     <g>
      <rect class="fil1 str0" transform="matrix(0.701266 0.159415 -0.159415 0.701266 1469.22 1972.75)" width="52.3" height="72.64"/>
     </g>
    </g>
    <path class="fil1 str5" d="M1939.61 2463.77c3.1,-69.88 3.82,-125.05 3.82,-125.05 0,0 11.62,-11.31 10.69,-18.17 -0.93,-6.86 -0.6,-41.24 -0.6,-41.24 0,0 14.02,-9.34 10.16,-17.97 -3.86,-8.63 -13.12,-3.6 -26.14,-18.68 -13.01,-15.08 -26.07,-76.52 -47.85,-101.01 -21.78,-24.49 -41.77,-27.32 -41.77,-27.32 0,0 1.9,-48.98 -4.29,-88.66 -2.88,-18.47 -16.6,-31.71 -32.53,-33.14 -48.41,-4.36 -132.88,2.29 -142.72,2.46 -9.84,0.17 -32.74,19.37 -33.35,42.59 -0.61,23.21 -2.55,81.55 -2.55,81.55 0,0 -57.17,17.61 -69.92,69.6 -12.75,51.99 -16.34,64.81 -29.03,68.07 -12.69,3.26 -21.36,7.67 -19.14,16.14 2.22,8.48 5.68,7.2 9.11,9.57 3.43,2.37 -1.62,48.07 0.05,53.52 1.67,5.45 7.98,7.77 9.64,14.43 1.04,4.17 -0.43,56.06 0.35,121.53"/>
    <path class="fil27 str5" d="M1521.94 2270.81c0,0 132.38,14.22 219.27,9.82 86.89,-4.4 222.24,-20.86 222.24,-20.86 0,0 -9.76,11.18 -9.8,14.83 -0.04,3.65 0.62,42.73 0.62,42.73 0,0 -4.95,11.41 -8.09,14.39 -3.14,2.98 -4.92,8.86 -4.92,8.86 0,0 -88.87,18.32 -207.2,20.31 -118.33,1.99 -199.05,-9.59 -199.05,-9.59 0,0 2,-1.71 -2.7,-7.93 -4.71,-6.22 -8.76,-11.37 -8.73,-14.09 0.03,-2.72 2.76,-52.62 -1.64,-58.45z"/>
    <path class="fil28" d="M1553.03 2529.39c0,0 6.18,141.92 12.08,203.16 5.89,61.24 28.42,209.93 35.3,240.03 6.87,30.11 41.88,38.01 120.29,37.5 78.41,-0.51 97.16,-4.9 114.39,-9.86 17.23,-4.96 25.76,-21.18 41.68,-109.53 15.91,-88.35 44.75,-360.96 44.75,-360.96 0,0 -42.7,-10.76 -58.67,21.08 -42.67,85.06 -109.87,-10 -170.45,-11.26 -29.22,-0.61 -43.29,31.84 -71.22,33.57 -46.11,2.86 -37.07,-47.81 -68.13,-43.71z"/>
    <line class="fil1 str5" x1="1632.37" y1="2116.37" x2="1848.07" y2= "2111.68" />
   </g>
  </g>
  <line class="fil1 str1" x1="1473.97" y1="3034.7" x2="3014.14" y2= "3034.7" />
 </g>
</svg>
